<svg xmlns="http://www.w3.org/2000/svg" viewBox="0 0 133.81 33.95"><defs><style>.cls-1{fill:#f2e6d8;}</style></defs><g id="Layer_2" data-name="Layer 2"><g id="Header"><path class="cls-1" d="M7.56,28.69l-.84,4.24-.2,1H0l.29-1.43L6.52,1l.2-1h6.35l.19,1,6.23,31.5.3,1.43H13.26l-.19-1-.84-4.24ZM9.88,14.2,8.57,23.34h2.64ZM8.75,22.7l1.13-5.79Z"/><path class="cls-1" d="M28.34,34H21.62V0h6.72A8,8,0,0,1,34.2,2.44a8,8,0,0,1,2.44,5.88v3.14a8.46,8.46,0,0,1-.8,3.58A8.3,8.3,0,0,1,34.53,17a9.44,9.44,0,0,1,1.31,2,8.26,8.26,0,0,1,.8,3.55v3.16A7.89,7.89,0,0,1,34.2,31.5,8,8,0,0,1,28.34,34Zm0-19.77a2.61,2.61,0,0,0,1.91-.8,2.58,2.58,0,0,0,.8-1.92V8.32a2.58,2.58,0,0,0-.8-1.91,2.58,2.58,0,0,0-1.91-.8H27.21v8.57Zm1.91,13.38a2.58,2.58,0,0,0,.8-1.92V22.48a2.73,2.73,0,0,0-2.71-2.71H27.21v8.59h1.13A2.61,2.61,0,0,0,30.25,27.56Z"/><path class="cls-1" d="M54.24,26.43A7.55,7.55,0,0,1,46.72,34a7.15,7.15,0,0,1-5.31-2.21,7.24,7.24,0,0,1-2.21-5.31V0h5.59V26.43a1.83,1.83,0,0,0,.56,1.36,1.91,1.91,0,0,0,1.37.57,1.85,1.85,0,0,0,1.35-.57,1.86,1.86,0,0,0,.56-1.36V0h5.61V26.43Z"/><path class="cls-1" d="M58.18,34H57V0H63.3a8,8,0,0,1,5.88,2.44,8,8,0,0,1,2.44,5.88V13.4a8,8,0,0,1-2.11,5.51,8,8,0,0,1,2.11,5.5v6.41A6.21,6.21,0,0,0,72.13,34H66.54a3.64,3.64,0,0,1-.43-1.45Q66,31.65,66,30.82V24.41a2.55,2.55,0,0,0-.81-1.91,2.61,2.61,0,0,0-1.91-.8h-.74V34H58.18Zm4.38-17.84h.74A2.75,2.75,0,0,0,66,13.4V8.32a2.54,2.54,0,0,0-.81-1.91,2.58,2.58,0,0,0-1.91-.8h-.74Z"/><path class="cls-1" d="M75.57,34H74.36V0h6.32a8,8,0,0,1,5.88,2.44A8,8,0,0,1,89,8.32V13.4a8,8,0,0,1-2.11,5.51A8,8,0,0,1,89,24.41v6.41A6.21,6.21,0,0,0,89.51,34H83.93a3.34,3.34,0,0,1-.43-1.45c-.06-.57-.09-1.13-.1-1.68V24.41a2.58,2.58,0,0,0-.8-1.91,2.64,2.64,0,0,0-1.92-.8h-.74V34H75.57Zm4.37-17.84h.74A2.73,2.73,0,0,0,83.4,13.4V8.32a2.57,2.57,0,0,0-.8-1.91,2.6,2.6,0,0,0-1.92-.8h-.74Z"/><path class="cls-1" d="M96.43,0h1.21V34H92.05V0h4.38Z"/><path class="cls-1" d="M114.14,2.23a7.21,7.21,0,0,1,2.21,5.31V26.43A7.55,7.55,0,0,1,108.83,34h-7.52V0h7.52A7.22,7.22,0,0,1,114.14,2.23Zm-7.25,3.38V28.36h1.94a1.85,1.85,0,0,0,1.35-.57,1.86,1.86,0,0,0,.56-1.36V7.54a1.89,1.89,0,0,0-.56-1.37,1.8,1.8,0,0,0-1.35-.56Z"/><path class="cls-1" d="M131.6,2.23a7.24,7.24,0,0,1,2.21,5.31V26.43A7.55,7.55,0,0,1,126.29,34,7.15,7.15,0,0,1,121,31.74a7.24,7.24,0,0,1-2.21-5.31V7.54A7.21,7.21,0,0,1,121,2.23a7.44,7.44,0,0,1,10.62,0Zm-6.68,3.94a1.86,1.86,0,0,0-.56,1.37V26.43a1.83,1.83,0,0,0,.56,1.36,1.91,1.91,0,0,0,1.37.57,2,2,0,0,0,1.35-.57,1.86,1.86,0,0,0,.56-1.36V7.54a1.89,1.89,0,0,0-.56-1.37,1.84,1.84,0,0,0-1.35-.56A1.86,1.86,0,0,0,124.92,6.17Z"/></g></g></svg>