<svg xmlns="http://www.w3.org/2000/svg" viewBox="0 0 92.12 47.76"><defs><style>.cls-1{fill:#1a1617;}.cls-2{fill:#d84539;}</style></defs><g id="Layer_2" data-name="Layer 2"><g id="Header"><rect class="cls-1" width="92.12" height="47.76" rx="23.88"/><path class="cls-2" d="M17.9,16.14a3.23,3.23,0,0,1,1,2.39v.9H16.37v-.9a.85.85,0,0,0-.26-.62.79.79,0,0,0-.6-.25.85.85,0,0,0-.87.87V27a.82.82,0,0,0,.25.61.87.87,0,0,0,.62.26.89.89,0,0,0,.86-.87v-.91h2.52V27a3.38,3.38,0,0,1-3.38,3.38,3.21,3.21,0,0,1-2.39-1,3.27,3.27,0,0,1-1-2.39v-8.5a3.24,3.24,0,0,1,1-2.39,3.2,3.2,0,0,1,2.39-1A3.26,3.26,0,0,1,17.9,16.14Z"/><path class="cls-2" d="M25.67,16.14a3.26,3.26,0,0,1,1,2.39V27a3.38,3.38,0,0,1-3.38,3.38A3.4,3.4,0,0,1,19.89,27v-8.5a3.41,3.41,0,0,1,3.39-3.39A3.26,3.26,0,0,1,25.67,16.14Zm-3,1.77a.84.84,0,0,0-.25.62V27a.82.82,0,0,0,.25.61.87.87,0,0,0,.62.26.86.86,0,0,0,.6-.26.83.83,0,0,0,.26-.61v-8.5a.85.85,0,0,0-.26-.62.82.82,0,0,0-.6-.25A.84.84,0,0,0,22.66,17.91Z"/><path class="cls-2" d="M27.86,15.69v-.55h2.4l.13.38,2.16,6.69V15.14h2.52V30.41H32.66L32.54,30l-2.17-6.69v7.07H27.86V15.69Z"/><path class="cls-2" d="M36.48,17.66h-.56V15.14h6.77v2.52H40.57V30.41H38.05V17.66Z"/><path class="cls-2" d="M45.61,15.14h.54V30.41H43.64V15.14h2Z"/><path class="cls-2" d="M47.81,15.69v-.55h2.4l.13.38,2.16,6.69V15.14H55V30.41h-2.4L52.49,30l-2.17-6.69v7.07H47.81V15.69Z"/><path class="cls-2" d="M63.14,27a3.38,3.38,0,0,1-6.76,0V15.14h2.51V27a.82.82,0,0,0,.25.61.89.89,0,0,0,.62.26.85.85,0,0,0,.61-.26.82.82,0,0,0,.25-.61V15.14h2.52V27Z"/><path class="cls-2" d="M67.28,28.05,66.9,30l-.09.46H63.87l.14-.64,2.8-14.18.09-.45h2.85l.09.45,2.8,14.18.14.64H69.84L69.75,30l-.38-1.9Zm1-6.52-.59,4.11h1.19Zm-.51,3.82.51-2.6Z"/><path class="cls-2" d="M74.15,30.41H73.6V15.14h2.85a3.74,3.74,0,0,1,3.75,3.74v2.28a3.6,3.6,0,0,1-1,2.48,3.63,3.63,0,0,1,1,2.48V29a2.78,2.78,0,0,0,.22,1.41H77.91a1.42,1.42,0,0,1-.19-.65c0-.26,0-.51,0-.76V26.12a1.15,1.15,0,0,0-.36-.86,1.16,1.16,0,0,0-.86-.36h-.33v5.51h-2Zm2-8h.33a1.16,1.16,0,0,0,.86-.36,1.19,1.19,0,0,0,.36-.87V18.88a1.15,1.15,0,0,0-.36-.86,1.16,1.16,0,0,0-.86-.36h-.33Z"/></g></g></svg>