<svg xmlns="http://www.w3.org/2000/svg" viewBox="0 0 121.95 33.95"><defs><style>.cls-1{fill:#f2e6d8;}</style></defs><g id="Layer_2" data-name="Layer 2"><g id="Header"><path class="cls-1" d="M12.15,0h1.23V5.61H5.59v8.57h4.62v5.59H5.59v8.59h7.79V34H0V0H12.15Z"/><path class="cls-1" d="M16.11,1.23V0h5.35l.28.86,4.8,14.86V0h5.61V34H26.8l-.28-.84L21.7,18.22V34H16.11V1.23Z"/><path class="cls-1" d="M47.68,2.23a7.23,7.23,0,0,1,2.2,5.31V26.43A7.53,7.53,0,0,1,42.36,34a7.55,7.55,0,0,1-7.52-7.52V7.54a7.19,7.19,0,0,1,2.21-5.31A7.15,7.15,0,0,1,42.36,0,7.25,7.25,0,0,1,47.68,2.23ZM41,6.17a1.86,1.86,0,0,0-.57,1.37V26.43A1.84,1.84,0,0,0,41,27.79a1.88,1.88,0,0,0,1.36.57,1.91,1.91,0,0,0,1.35-.57,1.84,1.84,0,0,0,.57-1.36V7.54a1.86,1.86,0,0,0-.57-1.37,1.92,1.92,0,0,0-2.71,0Z"/><path class="cls-1" d="M66.25,7.54V26.43a7.24,7.24,0,0,1-2.13,5.31A7,7,0,0,1,58.93,34a6.8,6.8,0,0,1-5.12-2.19,7.48,7.48,0,0,1-2.07-5.33V21.21h5.6v5.22a2.13,2.13,0,0,0,.49,1.46,1.44,1.44,0,0,0,1.1.47,1.62,1.62,0,0,0,1.21-.51,2,2,0,0,0,.5-1.42V0h5.61V7.54Z"/><path class="cls-1" d="M75.39,28.69l-.84,4.24-.19,1H67.83l.29-1.43L74.36,1l.19-1H80.9l.19,1,6.23,31.5.3,1.43H81.09l-.19-1-.84-4.24ZM77.71,14.2l-1.3,9.14H79Zm-1.13,8.5,1.13-5.79Z"/><path class="cls-1" d="M102.29,2.23a7.19,7.19,0,0,1,2.2,5.31V26.43A7.53,7.53,0,0,1,97,34H89.45V0H97A7.25,7.25,0,0,1,102.29,2.23ZM95,5.61V28.36H97a1.95,1.95,0,0,0,1.92-1.93V7.54a1.86,1.86,0,0,0-.57-1.37A1.77,1.77,0,0,0,97,5.61Z"/><path class="cls-1" d="M119.75,2.23A7.23,7.23,0,0,1,122,7.54V26.43A7.53,7.53,0,0,1,114.43,34a7.55,7.55,0,0,1-7.52-7.52V7.54a7.19,7.19,0,0,1,2.21-5.31A7.15,7.15,0,0,1,114.43,0,7.25,7.25,0,0,1,119.75,2.23Zm-6.68,3.94a1.86,1.86,0,0,0-.57,1.37V26.43a1.84,1.84,0,0,0,.57,1.36,1.88,1.88,0,0,0,1.36.57,1.91,1.91,0,0,0,1.35-.57,1.84,1.84,0,0,0,.57-1.36V7.54a1.86,1.86,0,0,0-.57-1.37,1.92,1.92,0,0,0-2.71,0Z"/></g></g></svg>