<svg xmlns="http://www.w3.org/2000/svg" viewBox="0 0 69.61 33.95"><defs><style>.cls-1{fill:#f2e6d8;}</style></defs><g id="Layer_2" data-name="Layer 2"><g id="Header"><path class="cls-1" d="M12.56,0h1.23V5.61H5.59v8.57h5.05v5.59H5.59V34H0V0H12.56Z"/><path class="cls-1" d="M28.26,0h1.23V5.61H21.7v8.57h4.63v5.59H21.7v8.59h7.79V34H16.11V0H28.26Z"/><path class="cls-1" d="M36.6,0h1.21V28.36h7.54V34H32.23V0H36.6Z"/><path class="cls-1" d="M52.15,0h1.21V34H47.77V0h4.38Z"/><path class="cls-1" d="M68.38,0h1.23V4.39l-.06.34L62.6,28.36h7V34H56.39V29.57l.06-.35L63.4,5.61h-7V0h12Z"/></g></g></svg>