<svg xmlns="http://www.w3.org/2000/svg" viewBox="0 0 249.01 71.79"><defs><style>.cls-1{fill:#ffca45;}</style></defs><g id="Layer_2" data-name="Layer 2"><g id="Header"><path class="cls-1" d="M2.06,22.82a6.86,6.86,0,0,1-2.06-5,6.92,6.92,0,0,1,2.06-5,6.77,6.77,0,0,1,5-2.09,6.87,6.87,0,0,1,5,2.09,7,7,0,0,1,0,10,6.89,6.89,0,0,1-5,2.07A6.79,6.79,0,0,1,2.06,22.82Zm7.85,4.92h2.54l0,2,1.2,40,.07,2.08H.42l.07-2.08,1.34-40,.07-2h8Z"/><path class="cls-1" d="M42.93,4a13.06,13.06,0,0,1,4,9.56V17.4H36.81V13.57a3.35,3.35,0,0,0-1-2.46,3.32,3.32,0,0,0-2.43-1,3.48,3.48,0,0,0-3.48,3.48v34a3.35,3.35,0,0,0,1,2.46,3.45,3.45,0,0,0,2.46,1,3.49,3.49,0,0,0,2.43-1,3.35,3.35,0,0,0,1-2.46v-9.5H32.48V28H46.9V47.57A13.55,13.55,0,0,1,33.36,61.1a12.88,12.88,0,0,1-9.56-4,13,13,0,0,1-4-9.56v-34A12.94,12.94,0,0,1,23.8,4a12.92,12.92,0,0,1,9.56-4A13.08,13.08,0,0,1,42.93,4Z"/><path class="cls-1" d="M54.21,61.1H52V0H63.42A14.41,14.41,0,0,1,74,4.39,14.44,14.44,0,0,1,78.4,15v9.14A14.35,14.35,0,0,1,74.6,34,14.44,14.44,0,0,1,78.4,44V55.48a11,11,0,0,0,.91,5.62h-10a6.17,6.17,0,0,1-.78-2.6c-.09-1-.15-2-.17-3V44a4.64,4.64,0,0,0-1.44-3.45,4.71,4.71,0,0,0-3.45-1.44H62.09v22H54.21ZM62.09,29h1.33a4.92,4.92,0,0,0,4.89-4.88V15a4.64,4.64,0,0,0-1.44-3.45,4.71,4.71,0,0,0-3.45-1.44H62.09Z"/><path class="cls-1" d="M94.92,51.64l-1.51,7.63-.35,1.83H81.32l.52-2.56L93.06,1.83,93.41,0h11.43l.35,1.83L116.4,58.54l.53,2.56H105.19l-.35-1.83-1.52-7.63Zm4.19-26.08L96.75,42h4.75Zm-2,15.29,2-10.4Z"/><path class="cls-1" d="M143.33,4a12.94,12.94,0,0,1,4,9.56v3.62H137.21V13.57a3.34,3.34,0,0,0-1-2.46,3.25,3.25,0,0,0-2.43-1,3.48,3.48,0,0,0-3.48,3.48v34a3.35,3.35,0,0,0,1,2.46,3.42,3.42,0,0,0,2.46,1,3.47,3.47,0,0,0,3.44-3.48V44H147.3v3.62A13.55,13.55,0,0,1,133.77,61.1a12.88,12.88,0,0,1-9.56-4,13,13,0,0,1-4-9.56v-34a13,13,0,0,1,4-9.56,12.9,12.9,0,0,1,9.56-4A13.06,13.06,0,0,1,143.33,4Z"/><path class="cls-1" d="M160.31,0h2.18V61.1H152.44V0h7.87Z"/><path class="cls-1" d="M180.7,51.64l-1.51,7.63-.35,1.83H167.1l.52-2.56L178.84,1.83,179.19,0h11.43L191,1.83l11.21,56.71.53,2.56H191l-.35-1.83-1.51-7.63Zm4.19-26.08L182.53,42h4.75Zm-2,15.29,2-10.4Z"/><path class="cls-1" d="M218.14,61.1a12,12,0,0,1-9.1-3.9,13.7,13.7,0,0,1-3.59-9.63V41.1h10.06v6.47a4,4,0,0,0,.81,2.7,2.33,2.33,0,0,0,1.82.78,1.45,1.45,0,0,0,1.31-.6,5.76,5.76,0,0,0,.52-2.88V40.85a5.34,5.34,0,0,0-.56-3,7.18,7.18,0,0,0-1.27-1.25c-.49-.39-.92-.72-1.3-1a42,42,0,0,1-8.22-6.82q-3.17-3.63-3.17-6.79V13.57A13.63,13.63,0,0,1,209,3.94,11.82,11.82,0,0,1,218.14,0a10.81,10.81,0,0,1,8.65,3.87,14.41,14.41,0,0,1,3.24,9.7V20H220V13.57a5.87,5.87,0,0,0-.52-2.88,1.39,1.39,0,0,0-1.31-.6,2.23,2.23,0,0,0-1.82.77,4.15,4.15,0,0,0-.81,2.71v6.79a3.4,3.4,0,0,0,1,2.49A21.15,21.15,0,0,0,220.57,26a26.9,26.9,0,0,1,6.89,6A11.53,11.53,0,0,1,230,39.06v8.51a14.11,14.11,0,0,1-3.24,9.66A10.81,10.81,0,0,1,218.14,61.1Z"/><path class="cls-1" d="M246.92,49A6.78,6.78,0,0,1,249,54a7.09,7.09,0,1,1-12.11-5,7.07,7.07,0,0,1,10,0Zm-7.82-5h-2.53l-.07-2-1.2-40L235.23,0h13.32l-.07,2.07-1.33,40.05-.07,1.93h-8Z"/></g></g></svg>