<svg xmlns="http://www.w3.org/2000/svg" viewBox="0 0 260.23 30.55"><defs><style>.cls-1{fill:#1e2540;}</style></defs><g id="Layer_2" data-name="Layer 2"><g id="Header"><path class="cls-1" d="M3.94,0H5V30.55H0V0H3.94Z"/><path class="cls-1" d="M8.33,1.11V0h4.82l.24.77,4.33,13.38V0h5V30.55H18l-.25-.76L13.36,16.4V30.55h-5V1.11Z"/><path class="cls-1" d="M36.74,2a6.55,6.55,0,0,1,2,4.79V8.7h-5V6.79a1.68,1.68,0,0,0-.51-1.24A1.65,1.65,0,0,0,32,5a1.74,1.74,0,0,0-1.74,1.75v17A1.68,1.68,0,0,0,30.73,25a1.71,1.71,0,0,0,1.23.51A1.73,1.73,0,0,0,33.17,25a1.68,1.68,0,0,0,.51-1.23V19H31.52V14h7.2v9.77A6.78,6.78,0,0,1,32,30.55a6.42,6.42,0,0,1-4.78-2,6.48,6.48,0,0,1-2-4.78v-17a6.49,6.49,0,0,1,2-4.79A6.46,6.46,0,0,1,32,0,6.55,6.55,0,0,1,36.74,2Z"/><path class="cls-1" d="M42.38,30.55H41.29V0H47a7.2,7.2,0,0,1,5.29,2.2,7.22,7.22,0,0,1,2.19,5.29v4.57a7.2,7.2,0,0,1-1.89,5A7.21,7.21,0,0,1,54.47,22v5.77a5.62,5.62,0,0,0,.46,2.81h-5a2.93,2.93,0,0,1-.38-1.3c-.05-.52-.08-1-.09-1.51V22a2.31,2.31,0,0,0-.72-1.72A2.36,2.36,0,0,0,47,19.53h-.67v11H42.38Zm3.94-16H47a2.46,2.46,0,0,0,2.44-2.44V7.49a2.29,2.29,0,0,0-.72-1.72A2.37,2.37,0,0,0,47,5h-.67Z"/><path class="cls-1" d="M67.87,0H69V5H62v7.72h4.17v5H62v7.73h7v5h-12V0H67.87Z"/><path class="cls-1" d="M77.5,30.55A6,6,0,0,1,73,28.6a6.84,6.84,0,0,1-1.79-4.82V20.55h5v3.23a2,2,0,0,0,.41,1.36,1.19,1.19,0,0,0,.91.38.71.71,0,0,0,.65-.3,2.81,2.81,0,0,0,.27-1.44V20.43A2.67,2.67,0,0,0,78.13,19a3.37,3.37,0,0,0-.63-.62c-.24-.2-.46-.37-.65-.51a20.82,20.82,0,0,1-4.11-3.41A5.28,5.28,0,0,1,71.16,11V6.79A6.79,6.79,0,0,1,73,2,5.93,5.93,0,0,1,77.5,0a5.43,5.43,0,0,1,4.33,1.93,7.29,7.29,0,0,1,1.61,4.86V10h-5V6.79a2.93,2.93,0,0,0-.27-1.45A.68.68,0,0,0,77.5,5a1.1,1.1,0,0,0-.91.39,2.08,2.08,0,0,0-.41,1.36v3.39a1.74,1.74,0,0,0,.5,1.25,10.69,10.69,0,0,0,2,1.56,13,13,0,0,1,3.45,3,5.71,5.71,0,0,1,1.28,3.53v4.25a7.11,7.11,0,0,1-1.61,4.84A5.43,5.43,0,0,1,77.5,30.55Z"/><path class="cls-1" d="M91.65,25.82l-.75,3.82-.18.91H84.85l.26-1.28L90.72.91,90.9,0h5.71l.18.91,5.6,28.36.27,1.28H96.79l-.18-.91-.76-3.82Zm2.09-13L92.57,21h2.37Zm-1,7.65,1-5.21Z"/><path class="cls-1" d="M116.72,5h-1.11V0h13.54V5h-4.24V30.55h-5V5Z"/><path class="cls-1" d="M144.3,23.78a6.79,6.79,0,0,1-6.77,6.77,6.42,6.42,0,0,1-4.78-2,6.52,6.52,0,0,1-2-4.78V0h5V23.78A1.68,1.68,0,0,0,136.3,25a1.71,1.71,0,0,0,1.23.51,1.65,1.65,0,0,0,1.21-.51,1.68,1.68,0,0,0,.51-1.23V0h5.05V23.78Z"/><path class="cls-1" d="M159.06,1.11V0h4.82l.25.77,4.32,13.38V0h5.05V30.55h-4.82l-.25-.76L164.09,16.4V30.55h-5V1.11Z"/><path class="cls-1" d="M187.47,2a6.56,6.56,0,0,1,2,4.79v17a6.57,6.57,0,0,1-2,4.78,6.49,6.49,0,0,1-4.78,2,6.42,6.42,0,0,1-4.78-2,6.48,6.48,0,0,1-2-4.78v-17a6.49,6.49,0,0,1,2-4.79,6.46,6.46,0,0,1,4.78-2A6.55,6.55,0,0,1,187.47,2Zm-6,3.55A1.68,1.68,0,0,0,181,6.79v17a1.68,1.68,0,0,0,.51,1.23,1.71,1.71,0,0,0,1.23.51A1.73,1.73,0,0,0,183.9,25a1.68,1.68,0,0,0,.51-1.23v-17a1.68,1.68,0,0,0-.51-1.24A1.65,1.65,0,0,0,182.69,5,1.68,1.68,0,0,0,181.46,5.55Z"/><path class="cls-1" d="M191.85,0h4.87l6.4,19.65L209.5,0h4.87V30.55h-5V16.77l-4.48,13.78h-3.5l-4.48-13.78V30.55h-5Z"/><path class="cls-1" d="M222.77,30.55h-6.05V0h6.05A7.16,7.16,0,0,1,228,2.2a7.14,7.14,0,0,1,2.2,5.29v2.83a7.59,7.59,0,0,1-.72,3.22,8,8,0,0,1-1.18,1.74A8.52,8.52,0,0,1,229.52,17a7.44,7.44,0,0,1,.72,3.2v2.85a7.51,7.51,0,0,1-7.47,7.47Zm0-17.79a2.46,2.46,0,0,0,2.44-2.44V7.49A2.48,2.48,0,0,0,222.77,5h-1v7.72Zm1.72,12a2.34,2.34,0,0,0,.72-1.72V20.23a2.46,2.46,0,0,0-2.44-2.44h-1v7.73h1A2.34,2.34,0,0,0,224.49,24.8Z"/><path class="cls-1" d="M233.63,30.55h-1.09V0h5.7a7.2,7.2,0,0,1,5.29,2.2,7.22,7.22,0,0,1,2.19,5.29v4.57a7.2,7.2,0,0,1-1.89,5A7.21,7.21,0,0,1,245.72,22v5.77a5.62,5.62,0,0,0,.46,2.81h-5a2.93,2.93,0,0,1-.38-1.3c-.05-.52-.08-1-.09-1.51V22a2.31,2.31,0,0,0-.72-1.72,2.36,2.36,0,0,0-1.72-.72h-.67v11h-3.94Zm3.94-16h.67a2.46,2.46,0,0,0,2.44-2.44V7.49A2.29,2.29,0,0,0,240,5.77,2.37,2.37,0,0,0,238.24,5h-.67Z"/><path class="cls-1" d="M259.12,0h1.11V5h-7v7.72h4.17v5h-4.17v7.73h7v5h-12V0h10.93Z"/></g></g></svg>