<svg xmlns="http://www.w3.org/2000/svg" viewBox="0 0 313.05 146.95"><defs><style>.cls-1{fill:#f4ede1;}</style></defs><g id="Layer_2" data-name="Layer 2"><g id="Header"><path class="cls-1" d="M115.85,11.41a3.41,3.41,0,0,1-1-2.5,3.41,3.41,0,0,1,1-2.5,3.36,3.36,0,0,1,2.5-1,3.57,3.57,0,0,1,3.55,3.55,3.38,3.38,0,0,1-1,2.5,3.44,3.44,0,0,1-2.51,1A3.39,3.39,0,0,1,115.85,11.41Zm3.93,2.46H121l0,1,.6,20,0,1H115l0-1,.66-20,0-1h4Z"/><path class="cls-1" d="M129,0H130V25.52h6.79v5H125V0H129Z"/><path class="cls-1" d="M143,0H144V30.55h-5V0H143Z"/><path class="cls-1" d="M153.4,30.55a6,6,0,0,1-4.55-1.95,6.88,6.88,0,0,1-1.79-4.82V20.55h5v3.23a2,2,0,0,0,.4,1.36,1.19,1.19,0,0,0,.91.38.7.7,0,0,0,.65-.3,2.81,2.81,0,0,0,.27-1.44V20.43A2.79,2.79,0,0,0,154,19a3.78,3.78,0,0,0-.64-.62c-.24-.2-.46-.37-.65-.51a20.82,20.82,0,0,1-4.11-3.41A5.33,5.33,0,0,1,147.06,11V6.79A6.83,6.83,0,0,1,148.85,2a5.94,5.94,0,0,1,4.55-2,5.41,5.41,0,0,1,4.33,1.93,7.24,7.24,0,0,1,1.62,4.86V10h-5V6.79a2.93,2.93,0,0,0-.27-1.45.68.68,0,0,0-.65-.3,1.11,1.11,0,0,0-.91.39,2.08,2.08,0,0,0-.4,1.36v3.39a1.69,1.69,0,0,0,.49,1.25,10.44,10.44,0,0,0,2,1.56,13.07,13.07,0,0,1,3.44,3,5.72,5.72,0,0,1,1.29,3.53v4.25a7.06,7.06,0,0,1-1.62,4.84A5.41,5.41,0,0,1,153.4,30.55Z"/><path class="cls-1" d="M161.86,5h-1.11V0h13.54V5h-4.24V30.55h-5V5Z"/><path class="cls-1" d="M187.17,2a6.52,6.52,0,0,1,2,4.79v17a6.79,6.79,0,0,1-6.77,6.77,6.42,6.42,0,0,1-4.78-2,6.52,6.52,0,0,1-2-4.78v-17a6.52,6.52,0,0,1,2-4.79,6.71,6.71,0,0,1,9.56,0Zm-6,3.55a1.68,1.68,0,0,0-.51,1.24v17a1.68,1.68,0,0,0,.51,1.23,1.71,1.71,0,0,0,2.44,0,1.68,1.68,0,0,0,.51-1.23v-17a1.68,1.68,0,0,0-.51-1.24A1.65,1.65,0,0,0,182.39,5,1.68,1.68,0,0,0,181.16,5.55Z"/><path class="cls-1" d="M197.59,24.5a3.55,3.55,0,0,1-2.51,6.05,3.35,3.35,0,0,1-2.5-1,3.56,3.56,0,0,1,0-5,3.38,3.38,0,0,1,2.5-1A3.45,3.45,0,0,1,197.59,24.5ZM193.68,22h-1.27l0-1-.6-20,0-1h6.66l0,1-.67,20,0,1h-4Z"/><path class="cls-1" d="M26.46,43.84h-1.1v-5H38.89v5H34.66V69.35h-5V43.84Z"/><path class="cls-1" d="M44.73,38.8h1.09V69.35h-5V38.8h3.94Z"/><path class="cls-1" d="M60.06,38.8h1.1v5h-7v7.72h4.17v5H54.15v7.73h7v5h-12V38.8H60.06Z"/><path class="cls-1" d="M63.62,39.91V38.8h4.82l.25.77L73,53V38.8h5V69.35H73.24L73,68.59,68.65,55.2V69.35h-5V39.91Z"/><path class="cls-1" d="M91.7,38.8h1.1v5h-7v7.72H90v5H85.79v7.73h7v5h-12V38.8H91.7Z"/><path class="cls-1" d="M101.33,69.35a6,6,0,0,1-4.55-1.95A6.84,6.84,0,0,1,95,62.58V59.35h5v3.23a2,2,0,0,0,.41,1.36,1.18,1.18,0,0,0,.91.38A.72.72,0,0,0,102,64a2.83,2.83,0,0,0,.26-1.44V59.23a2.69,2.69,0,0,0-.28-1.48,3.75,3.75,0,0,0-.63-.63l-.65-.5a20.82,20.82,0,0,1-4.11-3.41A5.3,5.3,0,0,1,95,49.82V45.58a6.79,6.79,0,0,1,1.8-4.81,5.91,5.91,0,0,1,4.55-2,5.4,5.4,0,0,1,4.32,1.93,7.23,7.23,0,0,1,1.62,4.85V48.8h-5V45.58a2.93,2.93,0,0,0-.26-1.44.69.69,0,0,0-.65-.3,1.1,1.1,0,0,0-.91.39,2.07,2.07,0,0,0-.41,1.35V49a1.75,1.75,0,0,0,.49,1.25,11.07,11.07,0,0,0,2,1.56,13.29,13.29,0,0,1,3.45,3,5.77,5.77,0,0,1,1.28,3.53v4.25a7.06,7.06,0,0,1-1.62,4.84A5.4,5.4,0,0,1,101.33,69.35Z"/><path class="cls-1" d="M127.94,56.59h-1.11v-5h1.64a1.65,1.65,0,0,0,1.21-.51,1.68,1.68,0,0,0,.51-1.23V45.58a1.68,1.68,0,0,0-.51-1.23,1.65,1.65,0,0,0-1.21-.51,1.74,1.74,0,0,0-1.74,1.74V48.1h-5V45.58a6.77,6.77,0,0,1,13.54,0v4.24a6.79,6.79,0,0,1-.6,2.78,7.2,7.2,0,0,1-.91,1.48,9.19,9.19,0,0,1,.91,1.47,6.89,6.89,0,0,1,.6,2.78v4.25a6.79,6.79,0,0,1-6.77,6.77,6.79,6.79,0,0,1-6.77-6.77V60.07h5v2.51a1.68,1.68,0,0,0,.51,1.23,1.71,1.71,0,0,0,2.44,0,1.68,1.68,0,0,0,.51-1.23V58.33a1.68,1.68,0,0,0-.51-1.23,1.65,1.65,0,0,0-1.21-.51Z"/><path class="cls-1" d="M149.53,40.8a6.51,6.51,0,0,1,2,4.78v17a6.78,6.78,0,0,1-6.76,6.77A6.79,6.79,0,0,1,138,62.58v-17a6.81,6.81,0,0,1,6.77-6.78A6.55,6.55,0,0,1,149.53,40.8Zm-6,3.55a1.68,1.68,0,0,0-.51,1.23v17a1.68,1.68,0,0,0,.51,1.23,1.71,1.71,0,0,0,1.23.51,1.65,1.65,0,0,0,1.21-.51,1.68,1.68,0,0,0,.51-1.23v-17a1.68,1.68,0,0,0-.51-1.23,1.62,1.62,0,0,0-1.21-.51A1.68,1.68,0,0,0,143.52,44.35Z"/><path class="cls-1" d="M172.34,69.35a6,6,0,0,1-4.55-1.95A6.88,6.88,0,0,1,166,62.58V59.35h5v3.23a2,2,0,0,0,.4,1.36,1.21,1.21,0,0,0,.91.38A.73.73,0,0,0,173,64a2.94,2.94,0,0,0,.26-1.44V59.23a2.69,2.69,0,0,0-.28-1.48,4.25,4.25,0,0,0-.64-.63l-.65-.5a20.82,20.82,0,0,1-4.11-3.41A5.33,5.33,0,0,1,166,49.82V45.58a6.82,6.82,0,0,1,1.79-4.81,5.94,5.94,0,0,1,4.55-2,5.41,5.41,0,0,1,4.33,1.93,7.23,7.23,0,0,1,1.62,4.85V48.8h-5V45.58a3,3,0,0,0-.26-1.44.71.71,0,0,0-.66-.3,1.11,1.11,0,0,0-.91.39,2.07,2.07,0,0,0-.4,1.35V49a1.71,1.71,0,0,0,.49,1.25,10.44,10.44,0,0,0,2,1.56,13.07,13.07,0,0,1,3.44,3,5.72,5.72,0,0,1,1.29,3.53v4.25a7.06,7.06,0,0,1-1.62,4.84A5.41,5.41,0,0,1,172.34,69.35Z"/><path class="cls-1" d="M191.63,38.8h1.11v5h-7v7.72h4.17v5h-4.17v7.73h7v5H180.69V38.8h10.94Z"/><path class="cls-1" d="M206.46,40.8a6.51,6.51,0,0,1,2,4.78V47.5h-5V45.58a1.74,1.74,0,1,0-3.47,0v17a1.68,1.68,0,0,0,.51,1.23,1.71,1.71,0,0,0,1.23.51,1.75,1.75,0,0,0,1.22-.51,1.68,1.68,0,0,0,.51-1.23V57.84h-2.17v-5h7.21v9.77a6.79,6.79,0,0,1-6.77,6.77,6.43,6.43,0,0,1-4.78-2,6.51,6.51,0,0,1-2-4.78v-17a6.75,6.75,0,0,1,11.54-4.78Z"/><path class="cls-1" d="M224.55,62.58a6.78,6.78,0,0,1-6.77,6.77,6.43,6.43,0,0,1-4.78-2,6.51,6.51,0,0,1-2-4.78V38.8h5V62.58a1.68,1.68,0,0,0,.51,1.23,1.74,1.74,0,0,0,1.23.51,1.74,1.74,0,0,0,1.73-1.74V38.8h5V62.58Z"/><path class="cls-1" d="M227,39.91V38.8h4.82l.25.77L236.4,53V38.8h5V69.35h-4.81l-.25-.76L232,55.2V69.35h-5V39.91Z"/><path class="cls-1" d="M255.7,40.8a6.52,6.52,0,0,1,2,4.78v17a6.79,6.79,0,0,1-6.77,6.77h-6.77V38.8h6.77A6.55,6.55,0,0,1,255.7,40.8Zm-6.52,3V64.32h1.74a1.65,1.65,0,0,0,1.21-.51,1.68,1.68,0,0,0,.51-1.23v-17a1.68,1.68,0,0,0-.51-1.23,1.62,1.62,0,0,0-1.21-.51Z"/><path class="cls-1" d="M271.42,40.8a6.54,6.54,0,0,1,2,4.78v17a6.78,6.78,0,0,1-6.77,6.77,6.43,6.43,0,0,1-4.78-2,6.51,6.51,0,0,1-2-4.78v-17a6.75,6.75,0,0,1,11.55-4.78Zm-6,3.55a1.68,1.68,0,0,0-.51,1.23v17a1.68,1.68,0,0,0,.51,1.23,1.73,1.73,0,0,0,1.23.51,1.75,1.75,0,0,0,1.22-.51,1.68,1.68,0,0,0,.51-1.23v-17a1.73,1.73,0,0,0-3-1.23Z"/><path class="cls-1" d="M281.86,69.35a6,6,0,0,1-4.56-1.95,6.88,6.88,0,0,1-1.79-4.82V59.35h5v3.23a2,2,0,0,0,.4,1.36,1.21,1.21,0,0,0,.92.38.72.72,0,0,0,.65-.3,2.94,2.94,0,0,0,.26-1.44V59.23a2.69,2.69,0,0,0-.28-1.48,4.69,4.69,0,0,0-.63-.63l-.65-.5a20.62,20.62,0,0,1-4.12-3.41,5.33,5.33,0,0,1-1.58-3.39V45.58a6.82,6.82,0,0,1,1.79-4.81,6,6,0,0,1,4.56-2,5.4,5.4,0,0,1,4.32,1.93,7.23,7.23,0,0,1,1.62,4.85V48.8h-5V45.58a3,3,0,0,0-.26-1.44.7.7,0,0,0-.65-.3,1.12,1.12,0,0,0-.92.39,2.07,2.07,0,0,0-.4,1.35V49a1.71,1.71,0,0,0,.49,1.25,11.07,11.07,0,0,0,2,1.56,13.07,13.07,0,0,1,3.44,3,5.72,5.72,0,0,1,1.29,3.53v4.25a7.06,7.06,0,0,1-1.62,4.84A5.4,5.4,0,0,1,281.86,69.35Z"/><path class="cls-1" d="M79.08,108.15H78V77.6h5.7a7.51,7.51,0,0,1,7.49,7.49v5.66a7.51,7.51,0,0,1-7.49,7.49H83v9.91H79.08Zm3.94-15h.67a2.34,2.34,0,0,0,1.72-.72,2.28,2.28,0,0,0,.72-1.72V85.09a2.29,2.29,0,0,0-.72-1.72,2.34,2.34,0,0,0-1.72-.72H83Z"/><path class="cls-1" d="M99.44,103.42l-.76,3.82-.17.91H92.64l.26-1.28,5.61-28.36.17-.91h5.72l.17.91,5.61,28.36.26,1.28h-5.87l-.17-.91-.76-3.82Zm2.09-13-1.18,8.23h2.38Zm-1,7.65,1-5.21Z"/><path class="cls-1" d="M113.19,108.15H112.1V77.6h5.69a7.51,7.51,0,0,1,7.49,7.49v4.57a7.16,7.16,0,0,1-1.9,5,7.17,7.17,0,0,1,1.9,4.95v5.77a5.4,5.4,0,0,0,.46,2.81h-5a3.06,3.06,0,0,1-.39-1.3c0-.52-.07-1-.09-1.51V99.57a2.31,2.31,0,0,0-.72-1.72,2.34,2.34,0,0,0-1.72-.72h-.67v11h-3.93Zm3.93-16.05h.67a2.46,2.46,0,0,0,2.44-2.44V85.09a2.29,2.29,0,0,0-.72-1.72,2.34,2.34,0,0,0-1.72-.72h-.67Z"/><path class="cls-1" d="M133.54,103.42l-.75,3.82-.18.91h-5.87l.26-1.28,5.61-28.36.18-.91h5.71l.17.91,5.61,28.36.26,1.28h-5.87l-.17-.91-.76-3.82Zm2.09-13-1.17,8.23h2.37Zm-1,7.65,1-5.21Z"/><path class="cls-1" d="M170.05,79.6a6.49,6.49,0,0,1,2,4.79V86.2h-5V84.39a1.68,1.68,0,0,0-.51-1.23,1.62,1.62,0,0,0-1.21-.51,1.74,1.74,0,0,0-1.74,1.74v17a1.68,1.68,0,0,0,.51,1.23,1.71,1.71,0,0,0,1.23.51,1.65,1.65,0,0,0,1.21-.51,1.68,1.68,0,0,0,.51-1.23V99.57h5v1.81a6.78,6.78,0,0,1-6.77,6.77,6.44,6.44,0,0,1-4.78-2,6.52,6.52,0,0,1-2-4.79v-17a6.81,6.81,0,0,1,6.77-6.79A6.55,6.55,0,0,1,170.05,79.6Z"/><path class="cls-1" d="M175.41,108.15h-1.09V77.6H180a7.51,7.51,0,0,1,7.49,7.49v4.57a7.21,7.21,0,0,1-1.9,5,7.22,7.22,0,0,1,1.9,4.95v5.77a5.52,5.52,0,0,0,.45,2.81h-5a2.93,2.93,0,0,1-.39-1.3c-.05-.52-.08-1-.09-1.51V99.57a2.31,2.31,0,0,0-.72-1.72,2.34,2.34,0,0,0-1.72-.72h-.67v11h-3.94Zm3.94-16.05H180a2.46,2.46,0,0,0,2.44-2.44V85.09a2.29,2.29,0,0,0-.72-1.72,2.34,2.34,0,0,0-1.72-.72h-.67Z"/><path class="cls-1" d="M200.9,77.6H202v5.05h-7v7.71h4.17v5H195v7.73h7v5H190V77.6H200.9Z"/><path class="cls-1" d="M210.27,103.42l-.76,3.82-.17.91h-5.87l.26-1.28,5.61-28.36.17-.91h5.72l.17.91L221,106.87l.26,1.28H215.4l-.17-.91-.76-3.82Zm2.09-13-1.18,8.23h2.38Zm-1,7.65,1-5.21Z"/><path class="cls-1" d="M224,108.15h-1.09V77.6h5.69a7.51,7.51,0,0,1,7.49,7.49v4.57a7.16,7.16,0,0,1-1.9,5,7.17,7.17,0,0,1,1.9,4.95v5.77a5.4,5.4,0,0,0,.46,2.81h-5a3.06,3.06,0,0,1-.39-1.3c0-.52-.07-1-.09-1.51V99.57a2.31,2.31,0,0,0-.72-1.72,2.34,2.34,0,0,0-1.72-.72H228v11H224ZM228,92.1h.67a2.46,2.46,0,0,0,2.44-2.44V85.09a2.29,2.29,0,0,0-.72-1.72,2.34,2.34,0,0,0-1.72-.72H228Z"/><path class="cls-1" d="M1.11,121.45H0v-5H13.54v5H9.3V147H4.25v-25.5Z"/><path class="cls-1" d="M28.69,140.18A6.79,6.79,0,0,1,21.92,147a6.79,6.79,0,0,1-6.77-6.77V116.4h5v23.78a1.68,1.68,0,0,0,.51,1.23,1.71,1.71,0,0,0,1.23.51,1.65,1.65,0,0,0,1.21-.51,1.68,1.68,0,0,0,.51-1.23V116.4h5.05v23.78Z"/><path class="cls-1" d="M54.72,118.4a6.56,6.56,0,0,1,2,4.79v1.91H51.66v-1.91a1.73,1.73,0,1,0-3.46,0v17a1.68,1.68,0,0,0,.51,1.23,1.71,1.71,0,0,0,1.23.51,1.73,1.73,0,0,0,1.21-.51,1.68,1.68,0,0,0,.51-1.23v-4.74H49.5v-5h7.21v9.77A6.79,6.79,0,0,1,49.94,147a6.79,6.79,0,0,1-6.77-6.77v-17a6.81,6.81,0,0,1,6.77-6.79A6.55,6.55,0,0,1,54.72,118.4Z"/><path class="cls-1" d="M60.36,147H59.27V116.4H65a7.51,7.51,0,0,1,7.49,7.49v4.57a7.21,7.21,0,0,1-1.9,5,7.22,7.22,0,0,1,1.9,5v5.77a5.52,5.52,0,0,0,.45,2.81h-5a3.06,3.06,0,0,1-.39-1.3c0-.52-.08-1-.09-1.51v-5.77a2.31,2.31,0,0,0-.72-1.72,2.34,2.34,0,0,0-1.72-.72H64.3v11H60.36Zm3.94-16H65a2.46,2.46,0,0,0,2.44-2.44v-4.57a2.29,2.29,0,0,0-.72-1.72,2.34,2.34,0,0,0-1.72-.72H64.3Z"/><path class="cls-1" d="M80.72,142.22,80,146l-.17.91H73.92l.26-1.28,5.61-28.36.17-.91h5.72l.17.91,5.61,28.36.26,1.28H85.85l-.17-.91-.76-3.82Zm2.09-13-1.18,8.23H84Zm-1,7.65,1-5.21Z"/><path class="cls-1" d="M93.38,117.51V116.4h4.81l.25.77,4.32,13.38V116.4h5V147H103l-.25-.75L98.4,132.8V147h-5V117.51Z"/><path class="cls-1" d="M134.09,118.4a6.55,6.55,0,0,1,2,4.79v17A6.78,6.78,0,0,1,129.3,147a6.43,6.43,0,0,1-4.78-2,6.51,6.51,0,0,1-2-4.78v-17a6.75,6.75,0,0,1,11.55-4.79Zm-6,3.56a1.66,1.66,0,0,0-.51,1.23v17a1.68,1.68,0,0,0,.51,1.23,1.73,1.73,0,0,0,2.45,0,1.68,1.68,0,0,0,.51-1.23v-17a1.73,1.73,0,0,0-3-1.23Z"/><path class="cls-1" d="M144.51,147h-6V116.4h6a7.51,7.51,0,0,1,7.47,7.49v2.83a7.59,7.59,0,0,1-.72,3.22,8,8,0,0,1-1.18,1.74,8.52,8.52,0,0,1,1.18,1.75,7.44,7.44,0,0,1,.72,3.2v2.85a7.51,7.51,0,0,1-7.47,7.47Zm0-17.79a2.46,2.46,0,0,0,2.44-2.44v-2.83a2.46,2.46,0,0,0-2.44-2.44h-1v7.71Zm1.72,12a2.34,2.34,0,0,0,.72-1.72v-2.85a2.46,2.46,0,0,0-2.44-2.44h-1v7.73h1A2.34,2.34,0,0,0,146.23,141.2Z"/><path class="cls-1" d="M155.37,147h-1.09V116.4H160a7.51,7.51,0,0,1,7.49,7.49v4.57a7.21,7.21,0,0,1-1.9,5,7.22,7.22,0,0,1,1.9,5v5.77a5.52,5.52,0,0,0,.45,2.81h-5a3.06,3.06,0,0,1-.39-1.3c0-.52-.08-1-.09-1.51v-5.77a2.31,2.31,0,0,0-.72-1.72,2.34,2.34,0,0,0-1.72-.72h-.67v11h-3.94Zm3.94-16H160a2.46,2.46,0,0,0,2.44-2.44v-4.57a2.29,2.29,0,0,0-.72-1.72,2.34,2.34,0,0,0-1.72-.72h-.67Z"/><path class="cls-1" d="M175.73,142.22,175,146l-.17.91h-5.87l.26-1.28,5.61-28.36.17-.91h5.72l.17.91,5.61,28.36.26,1.28h-5.87l-.17-.91-.76-3.82Zm2.09-13-1.18,8.23H179Zm-1,7.65,1-5.21Z"/><path class="cls-1" d="M212.24,118.4a6.51,6.51,0,0,1,2,4.79v17a6.78,6.78,0,0,1-6.76,6.77h-6.77V116.4h6.77A6.55,6.55,0,0,1,212.24,118.4Zm-6.52,3v20.47h1.74a1.65,1.65,0,0,0,1.21-.51,1.68,1.68,0,0,0,.51-1.23v-17a1.66,1.66,0,0,0-.51-1.23,1.62,1.62,0,0,0-1.21-.51Z"/><path class="cls-1" d="M227.62,116.4h1.11v5h-7v7.71h4.17v5h-4.17v7.73h7v5h-12V116.4h10.93Z"/><path class="cls-1" d="M249.29,142.22l-.75,3.82-.18.91h-5.87l.26-1.28,5.61-28.36.18-.91h5.71l.18.91,5.6,28.36.27,1.28h-5.87l-.18-.91-.76-3.82Zm2.09-13-1.17,8.23h2.37Zm-1,7.65,1-5.21Z"/><path class="cls-1" d="M263,147H262V116.4h5.69a7.49,7.49,0,0,1,7.49,7.49v4.57a7.16,7.16,0,0,1-1.9,5,7.17,7.17,0,0,1,1.9,5v5.77a5.62,5.62,0,0,0,.46,2.81h-5a2.93,2.93,0,0,1-.38-1.3c-.05-.52-.08-1-.09-1.51v-5.77a2.31,2.31,0,0,0-.72-1.72,2.36,2.36,0,0,0-1.73-.72H267v11H263Zm3.94-16h.66a2.46,2.46,0,0,0,2.45-2.44v-4.57a2.29,2.29,0,0,0-.72-1.72,2.36,2.36,0,0,0-1.73-.72H267Z"/><path class="cls-1" d="M277.7,121.45h-1.11v-5h13.54v5h-4.24V147h-5v-25.5Z"/><path class="cls-1" d="M302.68,116.4h1.11v5h-7v7.71h4.17v5h-4.17v7.73h7v5H291.74V116.4h10.94Z"/><path class="cls-1" d="M312,140.9a3.55,3.55,0,0,1-2.5,6,3.37,3.37,0,0,1-2.51-1,3.56,3.56,0,0,1,0-5,3.56,3.56,0,0,1,5,0Z"/></g></g></svg>