<svg xmlns="http://www.w3.org/2000/svg" viewBox="0 0 507.58 804.11"><defs><style>.cls-1{fill:#454e72;}.cls-2{fill:#ede0bf;}.cls-3{fill:#f1b92c;}.cls-4{fill:#f4ede1;}.cls-5{fill:#5c6a96;}.cls-6{fill:#1a1617;}</style></defs><g id="Layer_2" data-name="Layer 2"><g id="Header"><path class="cls-1" d="M507.58,550.32c0,140.16-113.63,253.79-253.79,253.79S0,690.48,0,550.32A252.67,252.67,0,0,1,47.79,402.05a253.83,253.83,0,0,0,412,0A252.67,252.67,0,0,1,507.58,550.32Z"/><path class="cls-2" d="M459.79,402.05a253.83,253.83,0,0,1-412,0,253.84,253.84,0,0,1,412,0Z"/><path class="cls-3" d="M507.58,253.79a252.66,252.66,0,0,1-47.79,148.26,253.84,253.84,0,0,0-412,0A252.66,252.66,0,0,1,0,253.79C0,113.62,113.62,0,253.79,0S507.58,113.62,507.58,253.79Z"/><path class="cls-4" d="M459.79,402.05s-92.23,108.38-206,108.38-206-108.38-206-108.38,92.23-108.38,206-108.38S459.79,402.05,459.79,402.05Z"/><circle class="cls-5" cx="253.79" cy="402.05" r="96.09"/><circle class="cls-6" cx="253.79" cy="402.05" r="45.78" transform="translate(-209.96 297.21) rotate(-45)"/></g></g></svg>