<svg xmlns="http://www.w3.org/2000/svg" viewBox="0 0 147.99 33.95"><defs><style>.cls-1{fill:#f2e6d8;}</style></defs><g id="Layer_2" data-name="Layer 2"><g id="Header"><path class="cls-1" d="M12.83,2.23A7.24,7.24,0,0,1,15,7.54V26.43a7.31,7.31,0,0,1-2.21,5.31A7.24,7.24,0,0,1,7.52,34a7.15,7.15,0,0,1-5.31-2.21A7.24,7.24,0,0,1,0,26.43V7.54A7.21,7.21,0,0,1,2.21,2.23,7.15,7.15,0,0,1,7.52,0,7.22,7.22,0,0,1,12.83,2.23ZM6.15,6.17a1.86,1.86,0,0,0-.56,1.37V26.43a1.83,1.83,0,0,0,.56,1.36,1.91,1.91,0,0,0,1.37.57,2,2,0,0,0,1.35-.57,1.86,1.86,0,0,0,.56-1.36V7.54a1.9,1.9,0,0,0-.56-1.37,1.84,1.84,0,0,0-1.35-.56A1.86,1.86,0,0,0,6.15,6.17Z"/><path class="cls-1" d="M18.91,34H17.7V0H24A8,8,0,0,1,29.9,2.44a8,8,0,0,1,2.44,5.88v6.29a8,8,0,0,1-2.44,5.88A8,8,0,0,1,24,22.93h-.74V34H18.91Zm4.37-16.63H24a2.6,2.6,0,0,0,1.92-.8,2.52,2.52,0,0,0,.8-1.91V8.32A2.73,2.73,0,0,0,24,5.61h-.74Z"/><path class="cls-1" d="M35.2,5.61H34V0H49V5.61H44.3V34H38.69V5.61Z"/><path class="cls-1" d="M55.49,0H56.7V34H51.11V0h4.38Z"/><path class="cls-1" d="M60.37,0h5.41l7.11,21.84L80,0h5.41V34H79.8V18.63L74.82,34H70.94L66,18.63V34H60.37Z"/><path class="cls-1" d="M92.7,0h1.21V34H88.32V0H92.7Z"/><path class="cls-1" d="M104.32,34a6.66,6.66,0,0,1-5.06-2.17,7.61,7.61,0,0,1-2-5.35v-3.6h5.58v3.6a2.24,2.24,0,0,0,.45,1.5,1.3,1.3,0,0,0,1,.43A.79.79,0,0,0,105,28a3.29,3.29,0,0,0,.29-1.6V22.7a3,3,0,0,0-.31-1.65,5.09,5.09,0,0,0-.7-.69l-.73-.56A23.49,23.49,0,0,1,99,16a6,6,0,0,1-1.75-3.77V7.54a7.54,7.54,0,0,1,2-5.35A6.58,6.58,0,0,1,104.32,0a6,6,0,0,1,4.8,2.15,8,8,0,0,1,1.8,5.39v3.57h-5.59V7.54a3.31,3.31,0,0,0-.29-1.6.77.77,0,0,0-.72-.33,1.23,1.23,0,0,0-1,.43,2.28,2.28,0,0,0-.45,1.5v3.77a2,2,0,0,0,.55,1.39,11.83,11.83,0,0,0,2.26,1.73,14.91,14.91,0,0,1,3.83,3.34,6.41,6.41,0,0,1,1.43,3.93v4.73a7.85,7.85,0,0,1-1.8,5.37A6,6,0,0,1,104.32,34Z"/><path class="cls-1" d="M113.71,5.61h-1.23V0h15V5.61h-4.71V34h-5.6V5.61Z"/><path class="cls-1" d="M135.76,28.69l-.84,4.24-.19,1H128.2l.3-1.43L134.73,1l.19-1h6.35l.19,1,6.24,31.5L148,34h-6.53l-.19-1-.84-4.24Zm2.33-14.49-1.31,9.14h2.63ZM137,22.7l1.14-5.79Z"/></g></g></svg>