<svg xmlns="http://www.w3.org/2000/svg" viewBox="0 0 565.23 356.67"><defs><style>.cls-1{fill:#eae4d6;}</style></defs><g id="Layer_2" data-name="Layer 2"><g id="Header"><path class="cls-1" d="M51.16,46.67H49.49V0H58.2a11,11,0,0,1,8.08,3.36,11,11,0,0,1,3.36,8.08v8.65a11,11,0,0,1-3.36,8.08,11,11,0,0,1-8.08,3.36h-1V46.67h-6Zm6-22.85h1a3.61,3.61,0,0,0,2.63-1.1,3.5,3.5,0,0,0,1.1-2.63V11.44a3.53,3.53,0,0,0-1.1-2.63,3.57,3.57,0,0,0-2.63-1.1h-1Z"/><path class="cls-1" d="M75.06,46.67H73.4V0h8.7a11,11,0,0,1,8.08,3.36,11,11,0,0,1,3.36,8.08v7A11,11,0,0,1,90.64,26a11,11,0,0,1,2.9,7.57v8.81a8.42,8.42,0,0,0,.7,4.29H86.55a4.71,4.71,0,0,1-.59-2c-.07-.79-.11-1.56-.13-2.31V33.57a3.76,3.76,0,0,0-3.73-3.73h-1V46.67h-6Zm6-24.51h1a3.77,3.77,0,0,0,3.73-3.74v-7A3.76,3.76,0,0,0,82.1,7.71h-1Z"/><path class="cls-1" d="M103.74,0h1.67V46.67H97.73V0h6Z"/><path class="cls-1" d="M110.46,0h7.44l9.77,30,9.75-30h7.44V46.67h-7.68v-21l-6.85,21.05H125l-6.85-21V46.67h-7.68Z"/><path class="cls-1" d="M165.16,0h1.69V7.71H156.14V19.5h6.36v7.68h-6.36V39h10.71v7.68H148.46V0h16.7Z"/><path class="cls-1" d="M172.28,46.67h-1.67V0h8.7a11,11,0,0,1,8.09,3.36,11,11,0,0,1,3.35,8.08v7a11,11,0,0,1-2.9,7.58,11,11,0,0,1,2.9,7.57v8.81a8.53,8.53,0,0,0,.7,4.29h-7.68a4.57,4.57,0,0,1-.59-2c-.07-.79-.12-1.56-.13-2.31V33.57a3.53,3.53,0,0,0-1.1-2.63,3.6,3.6,0,0,0-2.64-1.1h-1V46.67h-6Zm6-24.51h1a3.77,3.77,0,0,0,3.74-3.74v-7A3.53,3.53,0,0,0,182,8.81a3.6,3.6,0,0,0-2.64-1.1h-1Z"/><path class="cls-1" d="M211.73,3.06a10,10,0,0,1,3,7.31v26a10.35,10.35,0,0,1-10.34,10.34,9.85,9.85,0,0,1-7.3-3,10,10,0,0,1-3-7.31v-26a9.93,9.93,0,0,1,3-7.31A9.85,9.85,0,0,1,204.42,0,10,10,0,0,1,211.73,3.06Zm-9.19,5.43a2.54,2.54,0,0,0-.77,1.88v26a2.56,2.56,0,0,0,.77,1.89,2.67,2.67,0,0,0,1.88.77,2.71,2.71,0,0,0,1.86-.77,2.57,2.57,0,0,0,.78-1.89v-26a2.64,2.64,0,0,0-4.52-1.88Z"/><path class="cls-1" d="M227.21,37.44a5.14,5.14,0,0,1,1.6,3.81,12.06,12.06,0,0,1-2.12,6.23A24.33,24.33,0,0,1,222.15,53l-3.3,0a32.28,32.28,0,0,0,1.53-3.22,12.61,12.61,0,0,0,1-3.47,5,5,0,0,1-3.35-5,5.4,5.4,0,0,1,9.22-3.81Z"/><path class="cls-1" d="M269.09,3.06a9.89,9.89,0,0,1,3,7.31v2.76h-7.71V10.37a2.55,2.55,0,0,0-.78-1.88,2.47,2.47,0,0,0-1.85-.78,2.66,2.66,0,0,0-2.66,2.66v26a2.57,2.57,0,0,0,.78,1.89,2.63,2.63,0,0,0,1.88.77,2.65,2.65,0,0,0,2.63-2.66V33.57h7.71v2.76a10.34,10.34,0,0,1-20.68,0v-26a9.92,9.92,0,0,1,3-7.31,10.25,10.25,0,0,1,14.61,0Z"/><path class="cls-1" d="M292.83,3.06a9.94,9.94,0,0,1,3,7.31v26a10.36,10.36,0,0,1-10.34,10.34,9.86,9.86,0,0,1-7.31-3,10,10,0,0,1-3-7.31v-26a9.92,9.92,0,0,1,3-7.31,10.25,10.25,0,0,1,14.61,0Zm-9.18,5.43a2.55,2.55,0,0,0-.78,1.88v26a2.57,2.57,0,0,0,.78,1.89,2.63,2.63,0,0,0,1.88.77,2.67,2.67,0,0,0,1.85-.77,2.57,2.57,0,0,0,.78-1.89v-26a2.64,2.64,0,0,0-4.51-1.88Z"/><path class="cls-1" d="M299.52,1.69V0h7.36l.37,1.18,6.61,20.44V0h7.71V46.67h-7.36l-.38-1.15L307.2,25.06V46.67h-7.68v-45Z"/><path class="cls-1" d="M334.56,15.47l1.35,8,1.37-8,.72-4.32,1.67-9.75.24-1.4h7.73l-.32,2-7.41,43.29-.24,1.39h-7.52l-.24-1.39L324.52,2l-.35-2h7.74l.24,1.4,1.66,9.75Z"/><path class="cls-1" d="M356.67,0h1.66V46.67h-7.68V0h6Z"/><path class="cls-1" d="M365.05,46.67h-1.67V0h8.7a11,11,0,0,1,8.09,3.36,11,11,0,0,1,3.35,8.08v7a11,11,0,0,1-2.9,7.58,11,11,0,0,1,2.9,7.57v8.81a8.42,8.42,0,0,0,.7,4.29h-7.68a4.57,4.57,0,0,1-.59-2c-.07-.79-.12-1.56-.13-2.31V33.57a3.5,3.5,0,0,0-1.11-2.63,3.56,3.56,0,0,0-2.63-1.1h-1V46.67h-6Zm6-24.51h1a3.79,3.79,0,0,0,3.74-3.74v-7a3.5,3.5,0,0,0-1.11-2.63,3.56,3.56,0,0,0-2.63-1.1h-1Z"/><path class="cls-1" d="M387.44,7.71h-1.69V0h20.68V7.71H400v39h-7.71v-39Z"/><path class="cls-1" d="M417.76,39.45l-1.15,5.83-.27,1.39h-9l.4-2L416.34,1.4l.27-1.4h8.73l.27,1.4,8.56,43.31.41,2h-9l-.27-1.39-1.16-5.83ZM421,19.52l-1.8,12.57h3.63ZM419.4,31.21,421,23.26Z"/><path class="cls-1" d="M437.1,0h7.44l9.77,30,9.75-30h7.44V46.67h-7.68v-21L457,46.67h-5.34l-6.85-21V46.67H437.1Z"/><path class="cls-1" d="M492.32,3.06a10,10,0,0,1,3,7.31v26A10.35,10.35,0,0,1,485,46.67a9.83,9.83,0,0,1-7.3-3,9.94,9.94,0,0,1-3-7.31v-26a9.89,9.89,0,0,1,3-7.31A9.85,9.85,0,0,1,485,0,10,10,0,0,1,492.32,3.06Zm-9.19,5.43a2.55,2.55,0,0,0-.78,1.88v26a2.57,2.57,0,0,0,.78,1.89,2.64,2.64,0,0,0,3.73,0,2.57,2.57,0,0,0,.78-1.89v-26a2.55,2.55,0,0,0-.78-1.88A2.52,2.52,0,0,0,485,7.71,2.57,2.57,0,0,0,483.13,8.49Z"/><path class="cls-1" d="M508.27,46.67a9.13,9.13,0,0,1-7-3,10.49,10.49,0,0,1-2.74-7.36V31.39h7.68v4.94a3.1,3.1,0,0,0,.62,2.07,1.78,1.78,0,0,0,1.4.59,1.1,1.1,0,0,0,1-.45,4.41,4.41,0,0,0,.4-2.21V31.21a4.1,4.1,0,0,0-.43-2.26,5.4,5.4,0,0,0-1-.95l-1-.77A32,32,0,0,1,501,22q-2.42-2.76-2.42-5.18V10.37A10.43,10.43,0,0,1,501.31,3a9,9,0,0,1,7-3,8.25,8.25,0,0,1,6.6,3,11,11,0,0,1,2.47,7.42v4.91h-7.68V10.37a4.52,4.52,0,0,0-.4-2.21,1.06,1.06,0,0,0-1-.45,1.68,1.68,0,0,0-1.4.59,3.17,3.17,0,0,0-.62,2.07v5.18a2.62,2.62,0,0,0,.76,1.91,16.9,16.9,0,0,0,3.11,2.39,20.19,20.19,0,0,1,5.26,4.59,8.78,8.78,0,0,1,2,5.4v6.49a10.79,10.79,0,0,1-2.47,7.39A8.25,8.25,0,0,1,508.27,46.67Z"/><path class="cls-1" d="M45.73,69.71H44V62H64.72v7.71H58.25v39H50.54v-39Z"/><path class="cls-1" d="M87.87,98.33a10.35,10.35,0,0,1-10.34,10.34,9.83,9.83,0,0,1-7.3-3,9.94,9.94,0,0,1-3-7.31V62h7.68V98.33a2.57,2.57,0,0,0,.78,1.89,2.67,2.67,0,0,0,1.88.77,2.53,2.53,0,0,0,1.85-.77,2.57,2.57,0,0,0,.78-1.89V62h7.71V98.33Z"/><path class="cls-1" d="M100.9,108.67a9.13,9.13,0,0,1-7-3,10.49,10.49,0,0,1-2.74-7.36V93.39h7.68v4.94a3.1,3.1,0,0,0,.62,2.07,1.78,1.78,0,0,0,1.4.59,1.1,1.1,0,0,0,1-.45,4.41,4.41,0,0,0,.4-2.21V93.21a4.1,4.1,0,0,0-.43-2.26,5.76,5.76,0,0,0-1-1l-1-.77A32,32,0,0,1,93.62,84q-2.41-2.76-2.42-5.18V72.37A10.43,10.43,0,0,1,93.94,65a9,9,0,0,1,7-3,8.25,8.25,0,0,1,6.6,3A11,11,0,0,1,110,72.37v4.91h-7.68V72.37a4.52,4.52,0,0,0-.4-2.21,1.06,1.06,0,0,0-1-.45,1.68,1.68,0,0,0-1.4.59,3.17,3.17,0,0,0-.62,2.07v5.18a2.65,2.65,0,0,0,.75,1.91,17.29,17.29,0,0,0,3.12,2.39A20.19,20.19,0,0,1,108,86.44a8.78,8.78,0,0,1,2,5.4v6.49a10.79,10.79,0,0,1-2.47,7.39A8.25,8.25,0,0,1,100.9,108.67Z"/><path class="cls-1" d="M149.67,65.06a10,10,0,0,1,3,7.31v26a10.35,10.35,0,0,1-10.34,10.34,9.83,9.83,0,0,1-7.3-3,9.94,9.94,0,0,1-3-7.31v-26A10.41,10.41,0,0,1,142.36,62,10,10,0,0,1,149.67,65.06Zm-9.19,5.43a2.55,2.55,0,0,0-.78,1.88v26a2.57,2.57,0,0,0,.78,1.89,2.64,2.64,0,0,0,3.73,0,2.57,2.57,0,0,0,.78-1.89v-26a2.55,2.55,0,0,0-.78-1.88,2.5,2.5,0,0,0-1.85-.78A2.57,2.57,0,0,0,140.48,70.49Z"/><path class="cls-1" d="M175.21,72.37v26a10,10,0,0,1-2.93,7.31,9.55,9.55,0,0,1-7.15,3,9.35,9.35,0,0,1-7-3,10.28,10.28,0,0,1-2.85-7.34V91.17H163v7.16a2.9,2.9,0,0,0,.67,2,1.94,1.94,0,0,0,1.5.64,2.23,2.23,0,0,0,1.67-.69,2.71,2.71,0,0,0,.7-2V62h7.71V72.37Z"/><path class="cls-1" d="M196.13,65.06a10,10,0,0,1,3,7.31v26a10.35,10.35,0,0,1-10.34,10.34,9.83,9.83,0,0,1-7.3-3,9.94,9.94,0,0,1-3-7.31v-26A10.41,10.41,0,0,1,188.82,62,10,10,0,0,1,196.13,65.06Zm-9.19,5.43a2.55,2.55,0,0,0-.78,1.88v26a2.57,2.57,0,0,0,.78,1.89,2.64,2.64,0,0,0,3.73,0,2.57,2.57,0,0,0,.78-1.89v-26a2.55,2.55,0,0,0-.78-1.88,2.5,2.5,0,0,0-1.85-.78A2.57,2.57,0,0,0,186.94,70.49Z"/><path class="cls-1" d="M212.08,108.67a9.13,9.13,0,0,1-7-3,10.49,10.49,0,0,1-2.74-7.36V93.39h7.68v4.94a3.1,3.1,0,0,0,.62,2.07,1.78,1.78,0,0,0,1.4.59,1.09,1.09,0,0,0,1-.45,4.41,4.41,0,0,0,.4-2.21V93.21A4.1,4.1,0,0,0,213,91a5.4,5.4,0,0,0-1-1l-1-.77A32,32,0,0,1,204.8,84q-2.42-2.76-2.42-5.18V72.37A10.43,10.43,0,0,1,205.12,65a9.06,9.06,0,0,1,7-3,8.25,8.25,0,0,1,6.6,3,11,11,0,0,1,2.48,7.42v4.91h-7.69V72.37a4.52,4.52,0,0,0-.4-2.21,1.06,1.06,0,0,0-1-.45,1.68,1.68,0,0,0-1.4.59,3.17,3.17,0,0,0-.62,2.07v5.18a2.62,2.62,0,0,0,.76,1.91,16.9,16.9,0,0,0,3.11,2.39,20.25,20.25,0,0,1,5.27,4.59,8.84,8.84,0,0,1,2,5.4v6.49a10.79,10.79,0,0,1-2.48,7.39A8.25,8.25,0,0,1,212.08,108.67Z"/><path class="cls-1" d="M260.34,62H262v7.71H251.31V81.5h6.37v7.68h-6.37V101H262v7.68h-18.4V62h16.71Z"/><path class="cls-1" d="M265.79,63.69V62h7.36l.37,1.18,6.61,20.44V62h7.71v46.67h-7.36l-.38-1.15-6.63-20.46v21.61h-7.68v-45Z"/><path class="cls-1" d="M331.45,98.33a10.35,10.35,0,0,1-10.34,10.34,9.83,9.83,0,0,1-7.3-3,9.94,9.94,0,0,1-3-7.31V62h7.68V98.33a2.57,2.57,0,0,0,.78,1.89,2.65,2.65,0,0,0,1.88.77,2.55,2.55,0,0,0,1.85-.77,2.57,2.57,0,0,0,.78-1.89V62h7.71V98.33Z"/><path class="cls-1" d="M335.21,63.69V62h7.36l.37,1.18,6.61,20.44V62h7.71v46.67H349.9l-.38-1.15-6.63-20.46v21.61h-7.68v-45Z"/><path class="cls-1" d="M381.86,108.67h-1.67V62h8.7a11.45,11.45,0,0,1,11.44,11.44v8.65a11.45,11.45,0,0,1-11.44,11.44h-1v15.14h-6Zm6-22.85h1a3.64,3.64,0,0,0,2.64-1.1,3.5,3.5,0,0,0,1.1-2.63V73.44a3.53,3.53,0,0,0-1.1-2.63,3.6,3.6,0,0,0-2.64-1.1h-1Z"/><path class="cls-1" d="M410.54,62h1.67v46.67h-7.69V62h6Z"/><path class="cls-1" d="M417.25,63.69V62h7.36l.38,1.18,6.6,20.44V62h7.71v46.67h-7.36l-.37-1.15-6.64-20.46v21.61h-7.68v-45Z"/><path class="cls-1" d="M461.08,65.06a9.93,9.93,0,0,1,3,7.31v2.76h-7.71V72.37a2.55,2.55,0,0,0-.78-1.88,2.47,2.47,0,0,0-1.85-.78,2.66,2.66,0,0,0-2.66,2.66v26a2.57,2.57,0,0,0,.78,1.89,2.63,2.63,0,0,0,1.88.77,2.65,2.65,0,0,0,2.63-2.66V95.57h7.71v2.76a10.36,10.36,0,0,1-10.34,10.34,9.86,9.86,0,0,1-7.31-3,10,10,0,0,1-3-7.31v-26a10.31,10.31,0,0,1,17.64-7.31Z"/><path class="cls-1" d="M484.31,62H486v7.71H475.29V81.5h6.36v7.68h-6.36V101H486v7.68H467.61V62h16.7Z"/><path class="cls-1" d="M495.78,62h1.66v39h10.37v7.68H489.76V62h6Z"/><path class="cls-1" d="M519.51,75.63a5.41,5.41,0,0,1-7.66,7.64,5.43,5.43,0,0,1,0-7.64,5.15,5.15,0,0,1,3.83-1.6A5.21,5.21,0,0,1,519.51,75.63Zm0,23.81a5.17,5.17,0,0,1,1.59,3.81,5.41,5.41,0,0,1-5.42,5.42,5.17,5.17,0,0,1-3.83-1.58,5.25,5.25,0,0,1-1.57-3.84,5.39,5.39,0,0,1,5.4-5.4A5.24,5.24,0,0,1,519.51,99.44Z"/><path class="cls-1" d="M63.89,170.67H62.22V124h8.71a11.47,11.47,0,0,1,11.44,11.44v8.65a11.47,11.47,0,0,1-11.44,11.44h-1v15.14h-6Zm6-22.85h1a3.61,3.61,0,0,0,2.63-1.1,3.5,3.5,0,0,0,1.1-2.63v-8.65a3.53,3.53,0,0,0-1.1-2.63,3.57,3.57,0,0,0-2.63-1.1h-1Z"/><path class="cls-1" d="M102.83,124h1.69v7.71H93.81V143.5h6.36v7.68H93.81V163h10.71v7.68H86.12V124h16.71Z"/><path class="cls-1" d="M110,170.67h-1.67V124H117a11.45,11.45,0,0,1,11.44,11.44v7a11,11,0,0,1-2.9,7.58,11,11,0,0,1,2.9,7.57v8.81a8.42,8.42,0,0,0,.7,4.29h-7.68a4.57,4.57,0,0,1-.59-2c-.07-.79-.12-1.56-.14-2.31v-8.81a3.5,3.5,0,0,0-1.1-2.63,3.56,3.56,0,0,0-2.63-1.1h-1v16.83h-6Zm6-24.51h1a3.77,3.77,0,0,0,3.73-3.74v-7a3.5,3.5,0,0,0-1.1-2.63,3.56,3.56,0,0,0-2.63-1.1h-1Z"/><path class="cls-1" d="M141.45,170.67a9.13,9.13,0,0,1-7-3,10.49,10.49,0,0,1-2.74-7.36v-4.94h7.68v4.94a3.1,3.1,0,0,0,.62,2.07,1.78,1.78,0,0,0,1.4.59,1.1,1.1,0,0,0,1-.45,4.41,4.41,0,0,0,.4-2.21v-5.12a4.1,4.1,0,0,0-.43-2.26,5.4,5.4,0,0,0-1-.95l-1-.77a32,32,0,0,1-6.28-5.21q-2.41-2.76-2.42-5.18v-6.47a10.43,10.43,0,0,1,2.74-7.36,9,9,0,0,1,7-3,8.25,8.25,0,0,1,6.6,3,11,11,0,0,1,2.47,7.42v4.91h-7.68v-4.91a4.52,4.52,0,0,0-.4-2.21,1.06,1.06,0,0,0-1-.45,1.68,1.68,0,0,0-1.4.59,3.17,3.17,0,0,0-.62,2.07v5.18a2.62,2.62,0,0,0,.76,1.91,16.9,16.9,0,0,0,3.11,2.39,20.19,20.19,0,0,1,5.26,4.59,8.78,8.78,0,0,1,2,5.4v6.49a10.79,10.79,0,0,1-2.47,7.39A8.25,8.25,0,0,1,141.45,170.67Z"/><path class="cls-1" d="M160.65,124h1.66v46.67h-7.68V124h6Z"/><path class="cls-1" d="M184.58,127.06a10,10,0,0,1,3,7.31v2.92H179.9v-2.92a2.55,2.55,0,0,0-.78-1.88,2.5,2.5,0,0,0-1.85-.78,2.66,2.66,0,0,0-2.66,2.66v26a2.57,2.57,0,0,0,.78,1.89,2.64,2.64,0,0,0,3.73,0,2.57,2.57,0,0,0,.78-1.89v-7.25h-3.3V145.4h11v14.93a10.35,10.35,0,0,1-10.34,10.34,10.36,10.36,0,0,1-10.34-10.34v-26a10.32,10.32,0,0,1,17.65-7.31Z"/><path class="cls-1" d="M212.21,160.33a10.35,10.35,0,0,1-10.34,10.34,9.83,9.83,0,0,1-7.3-3,9.94,9.94,0,0,1-3-7.31V124h7.68v36.33a2.57,2.57,0,0,0,.78,1.89,2.67,2.67,0,0,0,1.88.77,2.53,2.53,0,0,0,1.85-.77,2.57,2.57,0,0,0,.78-1.89V124h7.71v36.33Z"/><path class="cls-1" d="M232.68,124h1.69v7.71H223.65V143.5H230v7.68h-6.37V163h10.72v7.68H216V124h16.71Z"/><path class="cls-1" d="M273.63,124h1.69v7.71H264.61V143.5H271v7.68h-6.36V163h10.71v7.68H256.93V124h16.7Z"/><path class="cls-1" d="M288.35,170.67a9.13,9.13,0,0,1-7-3,10.44,10.44,0,0,1-2.74-7.36v-4.94h7.68v4.94a3.1,3.1,0,0,0,.62,2.07,1.78,1.78,0,0,0,1.4.59,1.1,1.1,0,0,0,1-.45,4.41,4.41,0,0,0,.4-2.21v-5.12a4.1,4.1,0,0,0-.43-2.26,5.76,5.76,0,0,0-1-.95l-1-.77a32,32,0,0,1-6.28-5.21q-2.42-2.76-2.42-5.18v-6.47a10.39,10.39,0,0,1,2.74-7.36,9,9,0,0,1,7-3,8.25,8.25,0,0,1,6.6,3,11,11,0,0,1,2.47,7.42v4.91h-7.68v-4.91a4.52,4.52,0,0,0-.4-2.21,1.06,1.06,0,0,0-1-.45,1.68,1.68,0,0,0-1.4.59,3.17,3.17,0,0,0-.62,2.07v5.18a2.65,2.65,0,0,0,.75,1.91,17,17,0,0,0,3.12,2.39,20.19,20.19,0,0,1,5.26,4.59,8.78,8.78,0,0,1,2,5.4v6.49a10.79,10.79,0,0,1-2.47,7.39A8.25,8.25,0,0,1,288.35,170.67Z"/><path class="cls-1" d="M301.26,131.71h-1.69V124h20.68v7.71h-6.47v39h-7.71v-39Z"/><path class="cls-1" d="M339.43,124h1.69v7.71H330.4V143.5h6.37v7.68H330.4V163h10.72v7.68h-18.4V124h16.71Z"/><path class="cls-1" d="M380.89,127.06a9.94,9.94,0,0,1,3,7.31v26a10.36,10.36,0,0,1-10.34,10.34,9.86,9.86,0,0,1-7.31-3,10,10,0,0,1-3-7.31v-26a10.31,10.31,0,0,1,17.64-7.31Zm-9.18,5.43a2.55,2.55,0,0,0-.78,1.88v26a2.57,2.57,0,0,0,.78,1.89,2.63,2.63,0,0,0,1.88.77,2.68,2.68,0,0,0,1.85-.77,2.57,2.57,0,0,0,.78-1.89v-26a2.64,2.64,0,0,0-4.51-1.88Z"/><path class="cls-1" d="M406.43,134.37v26a9.94,9.94,0,0,1-2.93,7.31,9.55,9.55,0,0,1-7.14,3,9.37,9.37,0,0,1-7-3,10.31,10.31,0,0,1-2.84-7.34v-7.16h7.71v7.16a2.9,2.9,0,0,0,.67,2,1.93,1.93,0,0,0,1.5.64,2.25,2.25,0,0,0,1.67-.69,2.75,2.75,0,0,0,.69-2V124h7.71v10.37Z"/><path class="cls-1" d="M427.35,127.06a9.94,9.94,0,0,1,3,7.31v26a10.36,10.36,0,0,1-10.34,10.34,9.86,9.86,0,0,1-7.31-3,10,10,0,0,1-3-7.31v-26a10.31,10.31,0,0,1,17.64-7.31Zm-9.18,5.43a2.55,2.55,0,0,0-.78,1.88v26a2.57,2.57,0,0,0,.78,1.89,2.63,2.63,0,0,0,1.88.77,2.68,2.68,0,0,0,1.85-.77,2.57,2.57,0,0,0,.78-1.89v-26a2.64,2.64,0,0,0-4.51-1.88Z"/><path class="cls-1" d="M470.48,127.06a9.93,9.93,0,0,1,3,7.31v2.76h-7.71v-2.76a2.55,2.55,0,0,0-.78-1.88,2.47,2.47,0,0,0-1.85-.78,2.66,2.66,0,0,0-2.66,2.66v26a2.57,2.57,0,0,0,.78,1.89,2.63,2.63,0,0,0,1.88.77,2.65,2.65,0,0,0,2.63-2.66v-2.76h7.71v2.76a10.36,10.36,0,0,1-10.34,10.34,9.86,9.86,0,0,1-7.31-3,10,10,0,0,1-3-7.31v-26a10.31,10.31,0,0,1,17.64-7.31Z"/><path class="cls-1" d="M494.22,127.06a9.94,9.94,0,0,1,3,7.31v26a10.36,10.36,0,0,1-10.34,10.34,9.86,9.86,0,0,1-7.31-3,10,10,0,0,1-3-7.31v-26a10.31,10.31,0,0,1,17.64-7.31ZM485,132.49a2.55,2.55,0,0,0-.78,1.88v26a2.57,2.57,0,0,0,.78,1.89,2.63,2.63,0,0,0,1.88.77,2.68,2.68,0,0,0,1.85-.77,2.57,2.57,0,0,0,.78-1.89v-26a2.64,2.64,0,0,0-4.51-1.88Z"/><path class="cls-1" d="M500.91,125.69V124h7.36l.37,1.18,6.61,20.44V124H523v46.67H515.6l-.38-1.15-6.63-20.46v21.61h-7.68v-45Z"/><path class="cls-1" d="M1.69,193.71H0V186H20.68v7.71H14.21v39H6.5v-39Z"/><path class="cls-1" d="M43.83,222.33a10.36,10.36,0,0,1-10.34,10.34,10.35,10.35,0,0,1-10.34-10.34V186h7.68v36.33a2.57,2.57,0,0,0,.78,1.89,2.65,2.65,0,0,0,1.88.77,2.55,2.55,0,0,0,1.85-.77,2.57,2.57,0,0,0,.78-1.89V186h7.71v36.33Z"/><path class="cls-1" d="M66.39,186h7.44l9.77,30,9.75-30h7.44v46.67H93.11v-21l-6.85,21H80.92l-6.85-21v21H66.39Z"/><path class="cls-1" d="M110.83,186h1.67v46.67h-7.68V186h6Z"/><path class="cls-1" d="M119.21,232.67h-1.66V186h8.7a11.47,11.47,0,0,1,11.44,11.44v7a11,11,0,0,1-2.9,7.58,11,11,0,0,1,2.9,7.57v8.81a8.42,8.42,0,0,0,.7,4.29h-7.68a4.44,4.44,0,0,1-.59-2c-.08-.79-.12-1.56-.14-2.31v-8.81a3.76,3.76,0,0,0-3.73-3.73h-1v16.83h-6Zm6-24.51h1a3.77,3.77,0,0,0,3.73-3.74v-7a3.76,3.76,0,0,0-3.73-3.73h-1Z"/><path class="cls-1" d="M150.31,225.45l-1.15,5.83-.27,1.39h-9l.4-2,8.57-43.31.27-1.4h8.72l.27,1.4,8.57,43.31.4,2h-9l-.27-1.39-1.15-5.83Zm3.2-19.93-1.8,12.57h3.62ZM152,217.21l1.56-8Z"/><path class="cls-1" d="M187.29,189.06a9.93,9.93,0,0,1,3,7.31v26A10.36,10.36,0,0,1,180,232.67H169.65V186H180A10,10,0,0,1,187.29,189.06Zm-10,4.65V225H180a2.65,2.65,0,0,0,2.63-2.66v-26a2.55,2.55,0,0,0-.78-1.88,2.47,2.47,0,0,0-1.85-.78Z"/><path class="cls-1" d="M203,225.45l-1.16,5.83-.27,1.39h-9l.41-2,8.56-43.31.27-1.4h8.73l.27,1.4,8.57,43.31.4,2h-9l-.27-1.39-1.15-5.83Zm3.19-19.93-1.8,12.57H208Zm-1.55,11.69,1.55-8Z"/><path class="cls-1" d="M246.35,186h1.23l.38,1.18,2.68,11.47,2.66-11.47.38-1.18h8l-.65,2.14-6.55,21.65,0,.08v22.77h-7.7V209.9l-6.56-21.73-.67-2.14h6.8Z"/><path class="cls-1" d="M301.16,189.06a9.92,9.92,0,0,1,3,7.31v2.76h-7.7v-2.76a2.55,2.55,0,0,0-.78-1.88,2.48,2.48,0,0,0-1.86-.78,2.65,2.65,0,0,0-2.65,2.66v26a2.56,2.56,0,0,0,.77,1.89,2.67,2.67,0,0,0,1.88.77,2.65,2.65,0,0,0,2.64-2.66v-2.76h7.7v2.76a10.35,10.35,0,0,1-10.34,10.34,9.85,9.85,0,0,1-7.3-3,10,10,0,0,1-3-7.31v-26a10.32,10.32,0,0,1,17.65-7.31Z"/><path class="cls-1" d="M324.9,189.06a10,10,0,0,1,3,7.31v26a10.35,10.35,0,0,1-10.34,10.34,9.85,9.85,0,0,1-7.3-3,10,10,0,0,1-3-7.31v-26a10.32,10.32,0,0,1,17.65-7.31Zm-9.19,5.43a2.54,2.54,0,0,0-.77,1.88v26a2.56,2.56,0,0,0,.77,1.89,2.67,2.67,0,0,0,1.88.77,2.71,2.71,0,0,0,1.86-.77,2.57,2.57,0,0,0,.78-1.89v-26a2.64,2.64,0,0,0-4.52-1.88Z"/><path class="cls-1" d="M331.59,187.69V186h7.35l.38,1.18,6.61,20.44V186h7.7v46.67h-7.35l-.38-1.15-6.63-20.46v21.61h-7.68v-45Z"/><path class="cls-1" d="M393.27,186H395v7.71H384.25V205.5h6.36v7.68h-6.36V225H395v7.68H376.57V186h16.7Z"/><path class="cls-1" d="M404.74,186h1.66v39h10.37v7.68h-18V186h6Z"/><path class="cls-1" d="M438.47,186h7.44l9.77,30,9.75-30h7.44v46.67h-7.68v-21l-6.85,21H453l-6.85-21v21h-7.68Z"/><path class="cls-1" d="M493.68,189.06a9.94,9.94,0,0,1,3,7.31v26a10.36,10.36,0,0,1-10.34,10.34,9.83,9.83,0,0,1-7.3-3,9.94,9.94,0,0,1-3-7.31v-26a10.31,10.31,0,0,1,17.64-7.31Zm-9.18,5.43a2.55,2.55,0,0,0-.78,1.88v26a2.57,2.57,0,0,0,.78,1.89,2.64,2.64,0,0,0,3.73,0,2.57,2.57,0,0,0,.78-1.89v-26a2.55,2.55,0,0,0-.78-1.88,2.52,2.52,0,0,0-1.85-.78A2.57,2.57,0,0,0,484.5,194.49Z"/><path class="cls-1" d="M521.05,222.33a10.35,10.35,0,0,1-10.34,10.34,9.83,9.83,0,0,1-7.3-3,9.94,9.94,0,0,1-3-7.31V186h7.68v36.33a2.57,2.57,0,0,0,.78,1.89,2.67,2.67,0,0,0,1.88.77,2.55,2.55,0,0,0,1.85-.77,2.57,2.57,0,0,0,.78-1.89V186h7.71v36.33Z"/><path class="cls-1" d="M534.08,232.67a9.13,9.13,0,0,1-7-3,10.44,10.44,0,0,1-2.74-7.36v-4.94h7.68v4.94a3.1,3.1,0,0,0,.62,2.07,1.78,1.78,0,0,0,1.4.59,1.1,1.1,0,0,0,1-.45,4.41,4.41,0,0,0,.4-2.21v-5.12A4.1,4.1,0,0,0,535,215a5.76,5.76,0,0,0-1-.95l-1-.77A32,32,0,0,1,526.8,208q-2.41-2.76-2.42-5.18v-6.47a10.39,10.39,0,0,1,2.74-7.36,9,9,0,0,1,7-3,8.25,8.25,0,0,1,6.6,2.95,11,11,0,0,1,2.47,7.42v4.91h-7.68v-4.91a4.52,4.52,0,0,0-.4-2.21,1.06,1.06,0,0,0-1-.45,1.68,1.68,0,0,0-1.4.59,3.17,3.17,0,0,0-.62,2.07v5.18a2.65,2.65,0,0,0,.75,1.91,17,17,0,0,0,3.12,2.39,20.19,20.19,0,0,1,5.26,4.59,8.78,8.78,0,0,1,2,5.4v6.49a10.79,10.79,0,0,1-2.47,7.39A8.25,8.25,0,0,1,534.08,232.67Z"/><path class="cls-1" d="M563.54,186h1.69v7.71H554.51V205.5h6.37v7.68h-6.37V225h10.72v7.68h-18.4V186h16.71Z"/><path class="cls-1" d="M58.84,248h1.67v19.5h3.92V248h7.7v46.67h-7.7V275.18H60.51v19.49H52.82V248h6Z"/><path class="cls-1" d="M84.92,287.45l-1.16,5.83-.27,1.39h-9l.41-2,8.56-43.31.27-1.4h8.73l.27,1.4,8.57,43.31.4,2h-9l-.27-1.39-1.16-5.83Zm3.19-19.93-1.8,12.57h3.63Zm-1.56,11.69,1.56-7.95Z"/><path class="cls-1" d="M113.52,294.67a9.13,9.13,0,0,1-7-3,10.49,10.49,0,0,1-2.74-7.36v-4.94h7.68v4.94a3.1,3.1,0,0,0,.62,2.07,1.78,1.78,0,0,0,1.4.59,1.1,1.1,0,0,0,1-.45,4.41,4.41,0,0,0,.4-2.21v-5.12a4.1,4.1,0,0,0-.43-2.26,5.4,5.4,0,0,0-1-.95l-1-.77a32,32,0,0,1-6.28-5.21q-2.42-2.76-2.42-5.18v-6.47a10.43,10.43,0,0,1,2.74-7.36,9,9,0,0,1,7-3,8.25,8.25,0,0,1,6.6,2.95,11,11,0,0,1,2.47,7.42v4.91h-7.68v-4.91a4.52,4.52,0,0,0-.4-2.21,1.06,1.06,0,0,0-1-.45,1.68,1.68,0,0,0-1.4.59,3.17,3.17,0,0,0-.62,2.07v5.18a2.62,2.62,0,0,0,.76,1.91,16.9,16.9,0,0,0,3.11,2.39,20.19,20.19,0,0,1,5.26,4.59,8.78,8.78,0,0,1,2,5.4v6.49a10.79,10.79,0,0,1-2.47,7.39A8.25,8.25,0,0,1,113.52,294.67Z"/><path class="cls-1" d="M126.44,255.71h-1.7V248h20.68v7.71H139v39h-7.71v-39Z"/><path class="cls-1" d="M156.75,287.45l-1.15,5.83-.27,1.39h-9l.4-2,8.57-43.31.27-1.4h8.73l.27,1.4,8.56,43.31.41,2h-9l-.27-1.39-1.16-5.83Zm3.2-19.93-1.8,12.57h3.63Zm-1.56,11.69,1.56-7.95Z"/><path class="cls-1" d="M212.1,251.06a9.94,9.94,0,0,1,3,7.31v26a10,10,0,0,1-3,7.31,10.11,10.11,0,0,1-3.41,2.26,3.16,3.16,0,0,0,.57.48,2.86,2.86,0,0,0,2.8.33l1.63-.54,1.48,5.34-2.45.87a6.11,6.11,0,0,1-4.51,0c-1.38-.6-2.14-1.19-2.27-1.79s-.81-1.13-2-1.6a4.5,4.5,0,0,0-3.6.06l-1.74.77-1.51-5.15.25-.12.8-.37c-.28-.25-.49-.43-.62-.56a10,10,0,0,1-3-7.31v-26a10.31,10.31,0,0,1,17.64-7.31Zm-9.18,5.43a2.55,2.55,0,0,0-.78,1.88v26a2.57,2.57,0,0,0,.78,1.89,2.64,2.64,0,0,0,3.73,0,2.57,2.57,0,0,0,.78-1.89v-26a2.64,2.64,0,0,0-4.51-1.88Z"/><path class="cls-1" d="M239.47,284.33a10.36,10.36,0,0,1-10.34,10.34,9.83,9.83,0,0,1-7.3-3,9.94,9.94,0,0,1-3-7.31V248h7.68v36.33a2.57,2.57,0,0,0,.78,1.89,2.65,2.65,0,0,0,1.88.77,2.55,2.55,0,0,0,1.85-.77,2.57,2.57,0,0,0,.78-1.89V248h7.71v36.33Z"/><path class="cls-1" d="M259.93,248h1.69v7.71H250.91V267.5h6.36v7.68h-6.36V287h10.71v7.68H243.23V248h16.7Z"/><path class="cls-1" d="M284.34,255.71h-1.69V248h20.68v7.71h-6.47v39h-7.71v-39Z"/><path class="cls-1" d="M322.51,248h1.69v7.71H313.48V267.5h6.37v7.68h-6.37V287H324.2v7.68H305.8V248h16.71Z"/><path class="cls-1" d="M348.42,294.67h-1.66V248h8.7a11.47,11.47,0,0,1,11.44,11.44v8.65a11.47,11.47,0,0,1-11.44,11.44h-1v15.14h-6Zm6-22.85h1a3.6,3.6,0,0,0,2.63-1.1,3.5,3.5,0,0,0,1.1-2.63v-8.65a3.76,3.76,0,0,0-3.73-3.73h-1Z"/><path class="cls-1" d="M387.36,248h1.69v7.71H378.34V267.5h6.36v7.68h-6.36V287h10.71v7.68H370.66V248h16.7Z"/><path class="cls-1" d="M394.48,294.67h-1.67V248h8.71A11.47,11.47,0,0,1,413,259.44v7a11,11,0,0,1-2.91,7.58,11,11,0,0,1,2.91,7.57v8.81a8.43,8.43,0,0,0,.69,4.29H406a4.57,4.57,0,0,1-.59-2c-.07-.79-.11-1.56-.13-2.31v-8.81a3.53,3.53,0,0,0-1.1-2.63,3.57,3.57,0,0,0-2.63-1.1h-1v16.83h-6Zm6-24.51h1a3.77,3.77,0,0,0,3.73-3.74v-7a3.53,3.53,0,0,0-1.1-2.63,3.57,3.57,0,0,0-2.63-1.1h-1Z"/><path class="cls-1" d="M416.71,248h7.44l9.78,30,9.75-30h7.44v46.67h-7.68V273.62l-6.85,21.05h-5.35l-6.84-21.05v21.05h-7.69Z"/><path class="cls-1" d="M461.16,248h1.67v46.67h-7.68V248h6Z"/><path class="cls-1" d="M468,255.71h-1.7V248H487v7.71h-6.47v39h-7.71v-39Z"/><path class="cls-1" d="M498.36,287.45l-1.16,5.83-.27,1.39h-9l.41-2,8.56-43.31.27-1.4h8.73l.27,1.4,8.56,43.31.41,2h-9l-.27-1.39-1.16-5.83Zm3.19-19.93-1.8,12.57h3.63ZM500,279.21l1.56-7.95Z"/><path class="cls-1" d="M189.91,313.06a9.92,9.92,0,0,1,3,7.31v2.76h-7.7v-2.76a2.55,2.55,0,0,0-.78-1.88,2.48,2.48,0,0,0-1.86-.78,2.65,2.65,0,0,0-2.65,2.66v26a2.56,2.56,0,0,0,.77,1.89,2.67,2.67,0,0,0,1.88.77,2.65,2.65,0,0,0,2.64-2.66v-2.76h7.7v2.76a10.35,10.35,0,0,1-10.34,10.34,9.85,9.85,0,0,1-7.3-3,10,10,0,0,1-3-7.31v-26a10.32,10.32,0,0,1,17.65-7.31Z"/><path class="cls-1" d="M213.65,313.06a10,10,0,0,1,3,7.31v26a10.35,10.35,0,0,1-10.34,10.34,9.85,9.85,0,0,1-7.3-3,10,10,0,0,1-3-7.31v-26a10.32,10.32,0,0,1,17.65-7.31Zm-9.19,5.43a2.54,2.54,0,0,0-.77,1.88v26a2.56,2.56,0,0,0,.77,1.89,2.67,2.67,0,0,0,1.88.77,2.71,2.71,0,0,0,1.86-.77,2.57,2.57,0,0,0,.78-1.89v-26a2.64,2.64,0,0,0-4.52-1.88Z"/><path class="cls-1" d="M220.34,311.69V310h7.35l.38,1.18,6.61,20.44V310h7.7v46.67H235l-.38-1.15L228,335.06v21.61h-7.68v-45Z"/><path class="cls-1" d="M246.68,317.71H245V310h20.68v7.71H259.2v39h-7.71v-39Z"/><path class="cls-1" d="M274.58,310h1.67v46.67h-7.68V310h6Z"/><path class="cls-1" d="M281.3,311.69V310h7.36l.37,1.18,6.61,20.44V310h7.71v46.67H296l-.38-1.15L289,335.06v21.61H281.3v-45Z"/><path class="cls-1" d="M328.16,346.33a10.35,10.35,0,0,1-10.34,10.34,9.83,9.83,0,0,1-7.3-3,9.94,9.94,0,0,1-3-7.31V310h7.68v36.33a2.57,2.57,0,0,0,.78,1.89,2.67,2.67,0,0,0,1.88.77,2.53,2.53,0,0,0,1.85-.77,2.57,2.57,0,0,0,.78-1.89V310h7.71v36.33Z"/><path class="cls-1" d="M340.78,349.45l-1.15,5.83-.27,1.39h-9l.4-2,8.57-43.31.27-1.4h8.73l.26,1.4,8.57,43.31.4,2h-9l-.26-1.39-1.16-5.83Zm3.2-19.93-1.8,12.57h3.62Zm-1.56,11.69,1.56-7.95Z"/><path class="cls-1" d="M361.78,356.67h-1.66V310h8.7a11.47,11.47,0,0,1,11.44,11.44v7a11,11,0,0,1-2.9,7.58,11,11,0,0,1,2.9,7.57v8.81a8.42,8.42,0,0,0,.7,4.29h-7.68a4.57,4.57,0,0,1-.59-2c-.07-.79-.12-1.56-.14-2.31v-8.81a3.5,3.5,0,0,0-1.1-2.63,3.56,3.56,0,0,0-2.63-1.1h-1v16.83h-6Zm6-24.51h1a3.77,3.77,0,0,0,3.73-3.74v-7a3.5,3.5,0,0,0-1.1-2.63,3.56,3.56,0,0,0-2.63-1.1h-1Z"/><path class="cls-1" d="M392.82,347.44a5.17,5.17,0,0,1,1.59,3.81,5.41,5.41,0,0,1-5.42,5.42,5.17,5.17,0,0,1-3.83-1.58,5.25,5.25,0,0,1-1.57-3.84,5.39,5.39,0,0,1,5.4-5.4A5.26,5.26,0,0,1,392.82,347.44Z"/></g></g></svg>