<svg xmlns="http://www.w3.org/2000/svg" viewBox="0 0 441.68 102.63"><defs><style>.cls-1{fill:#1e2540;}</style></defs><g id="Layer_2" data-name="Layer 2"><g id="Header"><path class="cls-1" d="M1.63,45.83H0V0H8.54a10.81,10.81,0,0,1,7.94,3.3,10.79,10.79,0,0,1,3.3,7.93v8.49a10.81,10.81,0,0,1-3.3,7.94A10.81,10.81,0,0,1,8.54,31h-1V45.83H1.63ZM7.54,23.39h1a3.54,3.54,0,0,0,2.59-1.08,3.43,3.43,0,0,0,1.08-2.59V11.23a3.46,3.46,0,0,0-1.08-2.58A3.54,3.54,0,0,0,8.54,7.57h-1Z"/><path class="cls-1" d="M39.87,0h1.66V7.57H31V19.14h6.25v7.54H31V38.29H41.53v7.54H23.47V0h16.4Z"/><path class="cls-1" d="M46.85,45.83H45.22V0h8.54A10.81,10.81,0,0,1,61.7,3.3,10.79,10.79,0,0,1,65,11.23v6.86a10.74,10.74,0,0,1-2.85,7.43A10.83,10.83,0,0,1,65,33v8.65a8.22,8.22,0,0,0,.68,4.22H58.14a4.52,4.52,0,0,1-.58-1.95c-.07-.78-.11-1.53-.13-2.27V33a3.46,3.46,0,0,0-1.08-2.58,3.51,3.51,0,0,0-2.59-1.09h-1V45.83H46.85Zm5.91-24.08h1a3.69,3.69,0,0,0,3.67-3.66V11.23a3.46,3.46,0,0,0-1.08-2.58,3.54,3.54,0,0,0-2.59-1.08h-1Z"/><path class="cls-1" d="M85.59,3a9.78,9.78,0,0,1,3,7.17V35.67A10.17,10.17,0,0,1,78.42,45.83,10.17,10.17,0,0,1,68.26,35.67V10.18a9.73,9.73,0,0,1,3-7.17,9.67,9.67,0,0,1,7.18-3A9.79,9.79,0,0,1,85.59,3Zm-9,5.32a2.52,2.52,0,0,0-.76,1.85V35.67a2.51,2.51,0,0,0,.76,1.85,2.58,2.58,0,0,0,1.85.77,2.63,2.63,0,0,0,1.82-.77A2.51,2.51,0,0,0,81,35.67V10.18a2.52,2.52,0,0,0-.76-1.85,2.49,2.49,0,0,0-1.82-.76A2.52,2.52,0,0,0,76.57,8.33Z"/><path class="cls-1" d="M110.77,7.57h-1.66V0h20.3V7.57h-6.35V45.83h-7.57V7.57Z"/><path class="cls-1" d="M152.14,35.67a10.15,10.15,0,0,1-20.3,0V0h7.54V35.67a2.51,2.51,0,0,0,.76,1.85,2.58,2.58,0,0,0,1.85.77,2.61,2.61,0,0,0,2.58-2.62V0h7.57V35.67Z"/><path class="cls-1" d="M164.93,45.83a9,9,0,0,1-6.83-2.93,10.25,10.25,0,0,1-2.69-7.23V30.82H163v4.85a3,3,0,0,0,.61,2,1.77,1.77,0,0,0,1.37.58,1.07,1.07,0,0,0,1-.45,4.26,4.26,0,0,0,.4-2.17v-5a4.09,4.09,0,0,0-.42-2.22,6,6,0,0,0-.95-.93l-1-.75a31.45,31.45,0,0,1-6.17-5.12,8,8,0,0,1-2.37-5.09V10.18A10.2,10.2,0,0,1,158.1,3,8.87,8.87,0,0,1,164.93,0a8.12,8.12,0,0,1,6.48,2.9,10.82,10.82,0,0,1,2.43,7.28V15H166.3V10.18A4.32,4.32,0,0,0,165.9,8a1,1,0,0,0-1-.45,1.65,1.65,0,0,0-1.37.58,3.07,3.07,0,0,0-.61,2v5.09a2.55,2.55,0,0,0,.74,1.87,16,16,0,0,0,3.06,2.35,19.93,19.93,0,0,1,5.16,4.5,8.62,8.62,0,0,1,1.93,5.3v6.38a10.62,10.62,0,0,1-2.43,7.26A8.12,8.12,0,0,1,164.93,45.83Z"/><path class="cls-1" d="M212.81,3a9.74,9.74,0,0,1,3,7.17V35.67a10.17,10.17,0,0,1-10.15,10.16,10.17,10.17,0,0,1-10.15-10.16V10.18a9.69,9.69,0,0,1,3-7.17,9.65,9.65,0,0,1,7.17-3A9.76,9.76,0,0,1,212.81,3Zm-9,5.32a2.52,2.52,0,0,0-.76,1.85V35.67a2.51,2.51,0,0,0,.76,1.85,2.58,2.58,0,0,0,1.85.77,2.61,2.61,0,0,0,1.82-.77,2.51,2.51,0,0,0,.76-1.85V10.18a2.52,2.52,0,0,0-.76-1.85,2.49,2.49,0,0,0-1.82-.76A2.52,2.52,0,0,0,203.79,8.33Z"/><path class="cls-1" d="M237.88,10.18V35.67A9.79,9.79,0,0,1,235,42.85a9.4,9.4,0,0,1-7,3,9.18,9.18,0,0,1-6.91-3,10.11,10.11,0,0,1-2.8-7.2v-7h7.57v7a2.85,2.85,0,0,0,.66,2,1.94,1.94,0,0,0,1.48.64,2.16,2.16,0,0,0,1.63-.69,2.67,2.67,0,0,0,.69-1.93V0h7.56V10.18Z"/><path class="cls-1" d="M258.42,3a9.74,9.74,0,0,1,3,7.17V35.67a10.17,10.17,0,0,1-10.15,10.16A10.17,10.17,0,0,1,241.1,35.67V10.18a9.69,9.69,0,0,1,3-7.17,10,10,0,0,1,14.34,0Zm-9,5.32a2.53,2.53,0,0,0-.77,1.85V35.67a2.51,2.51,0,0,0,.77,1.85,2.56,2.56,0,0,0,1.84.77,2.6,2.6,0,0,0,1.82-.77,2.51,2.51,0,0,0,.77-1.85V10.18a2.53,2.53,0,0,0-.77-1.85,2.47,2.47,0,0,0-1.82-.76A2.5,2.5,0,0,0,249.41,8.33Z"/><path class="cls-1" d="M274.09,45.83a9,9,0,0,1-6.83-2.93,10.25,10.25,0,0,1-2.69-7.23V30.82h7.54v4.85a3,3,0,0,0,.61,2,1.77,1.77,0,0,0,1.37.58,1.07,1.07,0,0,0,1-.45,4.26,4.26,0,0,0,.4-2.17v-5a4.09,4.09,0,0,0-.42-2.22,6,6,0,0,0-1-.93l-1-.75a31.45,31.45,0,0,1-6.17-5.12,8,8,0,0,1-2.37-5.09V10.18A10.2,10.2,0,0,1,267.26,3,8.87,8.87,0,0,1,274.09,0a8.12,8.12,0,0,1,6.48,2.9A10.82,10.82,0,0,1,283,10.18V15h-7.54V10.18a4.32,4.32,0,0,0-.4-2.16,1,1,0,0,0-1-.45,1.65,1.65,0,0,0-1.37.58,3.07,3.07,0,0,0-.61,2v5.09a2.55,2.55,0,0,0,.74,1.87,16,16,0,0,0,3.06,2.35,19.93,19.93,0,0,1,5.16,4.5,8.62,8.62,0,0,1,1.93,5.3v6.38a10.62,10.62,0,0,1-2.43,7.26A8.12,8.12,0,0,1,274.09,45.83Z"/><path class="cls-1" d="M306.7,45.83h-1.63V0h8.54a10.81,10.81,0,0,1,7.94,3.3,10.78,10.78,0,0,1,3.29,7.93v8.49a10.8,10.8,0,0,1-3.29,7.94,10.81,10.81,0,0,1-7.94,3.3h-1V45.83H306.7Zm5.91-22.44h1a3.56,3.56,0,0,0,2.59-1.08,3.43,3.43,0,0,0,1.08-2.59V11.23a3.46,3.46,0,0,0-1.08-2.58,3.56,3.56,0,0,0-2.59-1.08h-1Z"/><path class="cls-1" d="M348.84,35.67a10.15,10.15,0,1,1-20.3,0V0h7.54V35.67a2.51,2.51,0,0,0,.76,1.85,2.58,2.58,0,0,0,1.85.77,2.61,2.61,0,0,0,2.58-2.62V0h7.57V35.67Z"/><path class="cls-1" d="M368.93,0h1.66V7.57H360.07V19.14h6.25v7.54h-6.25V38.29h10.52v7.54H352.53V0h16.4Z"/><path class="cls-1" d="M391.61,3a9.72,9.72,0,0,1,3,7.17V35.67a10.16,10.16,0,0,1-10.15,10.16H374.28V0h10.15A9.79,9.79,0,0,1,391.61,3Zm-9.79,4.56V38.29h2.61a2.48,2.48,0,0,0,1.82-.77,2.51,2.51,0,0,0,.77-1.85V10.18a2.53,2.53,0,0,0-.77-1.85,2.42,2.42,0,0,0-1.82-.76Z"/><path class="cls-1" d="M414.68,0h1.66V7.57H405.82V19.14h6.25v7.54h-6.25V38.29h10.52v7.54H398.28V0h16.4Z"/><path class="cls-1" d="M420,1.66V0h7.22l.37,1.16,6.49,20.07V0h7.57V45.83h-7.23l-.37-1.14L427.57,24.6V45.83H420V1.66Z"/><path class="cls-1" d="M15.73,56.8h1.63V75.94h3.85V56.8h7.57v45.83H21.21V83.48H17.36v19.15H9.82V56.8h5.91Z"/><path class="cls-1" d="M41.33,95.53l-1.13,5.72-.27,1.38h-8.8l.39-1.93,8.41-42.53.27-1.37h8.57L49,58.17l8.41,42.53.4,1.93H49l-.26-1.38-1.14-5.72ZM44.47,76,42.7,88.31h3.56ZM42.94,87.44l1.53-7.81Z"/><path class="cls-1" d="M77.64,59.81a9.73,9.73,0,0,1,3,7.17v2.71H73.05V67a2.52,2.52,0,0,0-.76-1.85,2.44,2.44,0,0,0-1.82-.76A2.59,2.59,0,0,0,67.86,67V92.47a2.51,2.51,0,0,0,.76,1.85,2.57,2.57,0,0,0,1.85.76,2.59,2.59,0,0,0,2.58-2.61V89.76h7.57v2.71a10.15,10.15,0,1,1-20.3,0V67a10.12,10.12,0,0,1,17.32-7.17Z"/><path class="cls-1" d="M100.45,56.8h1.66v7.57H91.59V75.94h6.25v7.54H91.59v11.6h10.52v7.55H84.05V56.8h16.4Z"/><path class="cls-1" d="M107.43,102.63H105.8V56.8h8.54A11.25,11.25,0,0,1,125.57,68v6.86a10.77,10.77,0,0,1-2.84,7.43,10.87,10.87,0,0,1,2.84,7.44v8.65a8.31,8.31,0,0,0,.69,4.22h-7.54a4.52,4.52,0,0,1-.58-2c-.07-.77-.12-1.52-.13-2.26V89.76a3.5,3.5,0,0,0-1.08-2.59,3.54,3.54,0,0,0-2.59-1.08h-1v16.54h-5.91Zm5.91-24.08h1A3.69,3.69,0,0,0,118,74.89V68a3.46,3.46,0,0,0-1.08-2.58,3.54,3.54,0,0,0-2.59-1.08h-1Z"/><path class="cls-1" d="M135.17,56.8h1.64V95.08H147v7.55H129.27V56.8h5.9Z"/><path class="cls-1" d="M166.73,59.81a9.74,9.74,0,0,1,3,7.17V92.47a10.17,10.17,0,0,1-10.15,10.16,10.17,10.17,0,0,1-10.15-10.16V67a10.12,10.12,0,0,1,17.32-7.17Zm-9,5.32A2.53,2.53,0,0,0,157,67V92.47a2.51,2.51,0,0,0,.77,1.85,2.55,2.55,0,0,0,1.84.76,2.59,2.59,0,0,0,1.82-.76,2.51,2.51,0,0,0,.77-1.85V67a2.53,2.53,0,0,0-.77-1.85,2.58,2.58,0,0,0-3.66,0Z"/><path class="cls-1" d="M197.66,56.8h1.64V95.08h10.17v7.55H191.76V56.8h5.9Z"/><path class="cls-1" d="M218.65,56.8h1.64v45.83h-7.55V56.8h5.91Z"/><path class="cls-1" d="M234.31,102.63h-9.07V56.8h9.07A11.27,11.27,0,0,1,245.52,68v4.25a11.26,11.26,0,0,1-1.08,4.82,11.09,11.09,0,0,1-1.77,2.61,12.69,12.69,0,0,1,1.77,2.64,11.14,11.14,0,0,1,1.08,4.8v4.27a11.27,11.27,0,0,1-11.21,11.21Zm0-26.69A3.69,3.69,0,0,0,238,72.28V68a3.69,3.69,0,0,0-3.67-3.66h-1.53V75.94ZM236.9,94A3.52,3.52,0,0,0,238,91.42V87.15a3.69,3.69,0,0,0-3.67-3.67h-1.53v11.6h1.53A3.54,3.54,0,0,0,236.9,94Z"/><path class="cls-1" d="M250.61,102.63H249V56.8h8.55A11.27,11.27,0,0,1,268.75,68v6.86a10.74,10.74,0,0,1-2.85,7.43,10.83,10.83,0,0,1,2.85,7.44v8.65a8.44,8.44,0,0,0,.68,4.22h-7.54a4.66,4.66,0,0,1-.58-2c-.07-.77-.11-1.52-.13-2.26V89.76a3.69,3.69,0,0,0-3.66-3.67h-1v16.54h-5.9Zm5.9-24.08h1a3.69,3.69,0,0,0,3.66-3.66V68a3.46,3.46,0,0,0-1.08-2.58,3.52,3.52,0,0,0-2.58-1.08h-1Z"/><path class="cls-1" d="M288.84,56.8h1.66v7.57H280V75.94h6.25v7.54H280v11.6H290.5v7.55H272.44V56.8h16.4Z"/><path class="cls-1" d="M294.19,56.8h7.31l9.59,29.48,9.58-29.48H328v45.83h-7.54V82l-6.73,20.68h-5.24L301.73,82v20.68h-7.54Z"/><path class="cls-1" d="M347.9,56.8h1.66v7.57H339V75.94h6.25v7.54H339v11.6h10.52v7.55H331.5V56.8h16.4Z"/><path class="cls-1" d="M353.25,58.46V56.8h7.23l.37,1.16L367.33,78V56.8h7.57v45.83h-7.22l-.37-1.14L360.8,81.4v21.23h-7.55V58.46Z"/><path class="cls-1" d="M379.12,64.37h-1.66V56.8h20.3v7.57h-6.35v38.26h-7.57V64.37Z"/><path class="cls-1" d="M416.59,56.8h1.66v7.57H407.73V75.94H414v7.54h-6.25v11.6h10.52v7.55H400.19V56.8h16.4Z"/><path class="cls-1" d="M430.58,93.56a5.28,5.28,0,0,1,0,7.51,5.15,5.15,0,0,1-3.76,1.56,5.09,5.09,0,0,1-3.76-1.56,5.15,5.15,0,0,1-1.54-3.77,5.29,5.29,0,0,1,5.3-5.3A5.15,5.15,0,0,1,430.58,93.56Z"/></g></g></svg>