<svg xmlns="http://www.w3.org/2000/svg" viewBox="0 0 814.22 102.9"><defs><style>.cls-1{fill:#ffca45;}</style></defs><g id="Layer_2" data-name="Layer 2"><g id="Header"><path class="cls-1" d="M2.65,45.42A8.63,8.63,0,0,1,0,39.07V29.72a7.74,7.74,0,0,1,2.32-5.37,11.45,11.45,0,0,1,4.29-2.88L6.47,18H13l.42,9.24-1.08,0-1.89.1h-.07a4.55,4.55,0,0,0-2.68,1c-.64.49-1,.93-1,1.34v9.35a2.24,2.24,0,0,0,.68,1.64A2.28,2.28,0,0,0,9,41.37a2.2,2.2,0,0,0,1.62-.66,2.24,2.24,0,0,0,.68-1.64V30.8H18v8.27a8.57,8.57,0,0,1-2.58,6.35A8.68,8.68,0,0,1,9,48.07,8.57,8.57,0,0,1,2.65,45.42ZM6.33,15A4.55,4.55,0,0,1,5,11.65,4.58,4.58,0,0,1,6.33,8.31a4.55,4.55,0,0,1,3.35-1.4A4.56,4.56,0,0,1,13,8.31a4.55,4.55,0,0,1,1.39,3.34A4.52,4.52,0,0,1,13,15a4.58,4.58,0,0,1-3.34,1.38A4.57,4.57,0,0,1,6.33,15Z"/><path class="cls-1" d="M36.59,2.67a8.71,8.71,0,0,1,2.64,6.38V31.71a8.78,8.78,0,0,1-2.64,6.38,8.68,8.68,0,0,1-3,2,2.4,2.4,0,0,0,.49.43,2.53,2.53,0,0,0,2.45.29L38,40.29,39.26,45l-2.14.76a5.28,5.28,0,0,1-3.93,0q-1.81-.78-2-1.56c-.12-.53-.71-1-1.77-1.4a3.94,3.94,0,0,0-3.14,0l-1.53.68L23.46,39l.21-.11.71-.31c-.26-.22-.43-.38-.54-.49a8.68,8.68,0,0,1-2.65-6.38V9.05a8.64,8.64,0,0,1,2.65-6.38A8.59,8.59,0,0,1,30.21,0,8.73,8.73,0,0,1,36.59,2.67Zm-8,4.74a2.24,2.24,0,0,0-.68,1.64V31.71a2.24,2.24,0,0,0,.68,1.64,2.31,2.31,0,0,0,1.64.68,2.35,2.35,0,0,0,1.62-.68,2.24,2.24,0,0,0,.68-1.64V9.05a2.24,2.24,0,0,0-.68-1.64,2.18,2.18,0,0,0-1.62-.68A2.2,2.2,0,0,0,28.57,7.41Z"/><path class="cls-1" d="M60.47,31.71a9,9,0,0,1-15.4,6.38,8.68,8.68,0,0,1-2.65-6.38V0h6.7V31.71a2.24,2.24,0,0,0,.68,1.64,2.31,2.31,0,0,0,1.65.68,2.32,2.32,0,0,0,2.29-2.32V0h6.73V31.71Z"/><path class="cls-1" d="M69.38,0h1.45V40.73H64.12V0h5.26Z"/><path class="cls-1" d="M89.81,0h1.48V6.73H81.94V17h5.55v6.7H81.94V34h9.35v6.7H75.23V0H89.81Z"/><path class="cls-1" d="M96,40.73H94.57V0h7.59a9.64,9.64,0,0,1,7.06,2.93A9.61,9.61,0,0,1,112.15,10v6.1a9.61,9.61,0,0,1-2.53,6.61,9.64,9.64,0,0,1,2.53,6.61V37a7.39,7.39,0,0,0,.61,3.75h-6.71a4,4,0,0,1-.51-1.73c-.06-.69-.1-1.36-.12-2V29.3a3.08,3.08,0,0,0-1-2.3,3.14,3.14,0,0,0-2.3-1h-.89V40.73H96Zm5.25-21.39h.89a3.28,3.28,0,0,0,3.26-3.26V10a3.07,3.07,0,0,0-1-2.29,3.14,3.14,0,0,0-2.3-1h-.89Z"/><path class="cls-1" d="M130,0h1.47V6.73h-9.35V17h5.56v6.7h-5.56V34h9.35v6.7h-16V0H130Z"/><path class="cls-1" d="M142.85,40.73a8,8,0,0,1-6.07-2.6,9.14,9.14,0,0,1-2.39-6.42V27.4h6.7v4.31a2.73,2.73,0,0,0,.54,1.81,1.59,1.59,0,0,0,1.22.51.94.94,0,0,0,.87-.4,3.86,3.86,0,0,0,.35-1.92V27.23a3.59,3.59,0,0,0-.37-2,5.21,5.21,0,0,0-.85-.84l-.87-.66a28.21,28.21,0,0,1-5.48-4.55,7.11,7.11,0,0,1-2.11-4.52V9.05a9.11,9.11,0,0,1,2.39-6.43A7.92,7.92,0,0,1,142.85,0a7.22,7.22,0,0,1,5.77,2.58,9.66,9.66,0,0,1,2.15,6.47v4.29h-6.7V9.05a4,4,0,0,0-.35-1.93.94.94,0,0,0-.87-.39,1.49,1.49,0,0,0-1.22.51,2.77,2.77,0,0,0-.54,1.81v4.52a2.29,2.29,0,0,0,.66,1.66,14,14,0,0,0,2.72,2.09,17.74,17.74,0,0,1,4.59,4A7.68,7.68,0,0,1,150.77,26v5.67a9.46,9.46,0,0,1-2.15,6.45A7.21,7.21,0,0,1,142.85,40.73Z"/><path class="cls-1" d="M191.73,2.67a8.68,8.68,0,0,1,2.65,6.38V11.6h-6.72V9.05A2.24,2.24,0,0,0,187,7.41a2.29,2.29,0,0,0-3.26,0A2.24,2.24,0,0,0,183,9.05V31.71a2.24,2.24,0,0,0,.68,1.64,2.29,2.29,0,0,0,1.64.68,2.35,2.35,0,0,0,1.62-.68,2.24,2.24,0,0,0,.68-1.64V25.38h-2.89v-6.7h9.61v13a9,9,0,0,1-9,9A8.62,8.62,0,0,1,179,38.09a8.71,8.71,0,0,1-2.64-6.38V9.05A8.67,8.67,0,0,1,179,2.67a8.95,8.95,0,0,1,12.75,0Z"/><path class="cls-1" d="M215.85,31.71a9,9,0,0,1-18,0V0h6.71V31.71a2.2,2.2,0,0,0,.68,1.64,2.29,2.29,0,0,0,1.64.68,2.32,2.32,0,0,0,2.29-2.32V0h6.73V31.71Z"/><path class="cls-1" d="M226.87,34.43l-1,5.09-.24,1.21H217.8l.35-1.71,7.47-37.8L225.86,0h7.62l.23,1.22L241.19,39l.35,1.71h-7.83l-.23-1.21-1-5.09ZM229.66,17l-1.57,11h3.16ZM228.3,27.23l1.36-6.93Z"/><path class="cls-1" d="M245.19,40.73h-1.45V0h7.6a9.61,9.61,0,0,1,7,2.93A9.61,9.61,0,0,1,261.32,10v6.1a9.56,9.56,0,0,1-2.53,6.61,9.6,9.6,0,0,1,2.53,6.61V37a7.39,7.39,0,0,0,.61,3.75h-6.7a3.84,3.84,0,0,1-.52-1.73c-.06-.69-.1-1.36-.12-2V29.3a3.08,3.08,0,0,0-1-2.3,3.12,3.12,0,0,0-2.29-1h-.9V40.73h-5.25Zm5.25-21.39h.9a3.12,3.12,0,0,0,2.29-1,3.16,3.16,0,0,0,1-2.3V10a3.07,3.07,0,0,0-1-2.29,3.12,3.12,0,0,0-2.29-1h-.9Z"/><path class="cls-1" d="M280,2.67a8.64,8.64,0,0,1,2.65,6.38V31.71a9,9,0,0,1-9,9h-9V0h9A8.71,8.71,0,0,1,280,2.67Zm-8.7,4.06V34h2.32a2.21,2.21,0,0,0,1.62-.68,2.24,2.24,0,0,0,.68-1.64V9.05a2.24,2.24,0,0,0-.68-1.64,2.13,2.13,0,0,0-1.62-.68Z"/><path class="cls-1" d="M293.66,34.43l-1,5.09-.24,1.21h-7.83l.35-1.71,7.48-37.8L292.66,0h7.61l.24,1.22L308,39l.36,1.71h-7.83l-.24-1.21-1-5.09ZM296.45,17l-1.57,11h3.17Zm-1.36,10.19,1.36-6.93Z"/><path class="cls-1" d="M312,40.73h-1.45V0h7.59a9.65,9.65,0,0,1,7.06,2.93A9.61,9.61,0,0,1,328.12,10v6.1a9.61,9.61,0,0,1-2.53,6.61,9.64,9.64,0,0,1,2.53,6.61V37a7.28,7.28,0,0,0,.61,3.75H322a4,4,0,0,1-.51-1.73c-.07-.69-.1-1.36-.12-2V29.3a3.08,3.08,0,0,0-1-2.3,3.14,3.14,0,0,0-2.3-1h-.89V40.73H312Zm5.25-21.39h.89a3.28,3.28,0,0,0,3.26-3.26V10a3.07,3.07,0,0,0-1-2.29,3.14,3.14,0,0,0-2.3-1h-.89Z"/><path class="cls-1" d="M354.27,6.73h-1.48V0h18V6.73h-5.65v34h-6.73v-34Z"/><path class="cls-1" d="M391,31.71a9,9,0,0,1-18.05,0V0h6.7V31.71a2.24,2.24,0,0,0,.68,1.64A2.31,2.31,0,0,0,382,34a2.32,2.32,0,0,0,2.29-2.32V0H391V31.71Z"/><path class="cls-1" d="M432.07,2.67a8.68,8.68,0,0,1,2.65,6.38V31.71a9,9,0,0,1-9,9,8.6,8.6,0,0,1-6.37-2.64,8.68,8.68,0,0,1-2.65-6.38V9.05a8.64,8.64,0,0,1,2.65-6.38A8.59,8.59,0,0,1,425.69,0,8.71,8.71,0,0,1,432.07,2.67Zm-8,4.74a2.24,2.24,0,0,0-.68,1.64V31.71a2.24,2.24,0,0,0,.68,1.64,2.29,2.29,0,0,0,3.26,0,2.2,2.2,0,0,0,.68-1.64V9.05a2.2,2.2,0,0,0-.68-1.64,2.18,2.18,0,0,0-1.62-.68A2.22,2.22,0,0,0,424.05,7.41Z"/><path class="cls-1" d="M446,40.73h-8.06V0H446a9.6,9.6,0,0,1,7,2.93A9.58,9.58,0,0,1,455.93,10v3.78a10.09,10.09,0,0,1-1,4.29,10.39,10.39,0,0,1-1.57,2.32A11.53,11.53,0,0,1,455,22.71a9.9,9.9,0,0,1,1,4.27v3.79a10,10,0,0,1-10,10ZM446,17a3.3,3.3,0,0,0,3.26-3.26V10a3.12,3.12,0,0,0-1-2.29,3.16,3.16,0,0,0-2.3-1h-1.36V17Zm2.3,16.05a3.14,3.14,0,0,0,1-2.3V27A3.28,3.28,0,0,0,446,23.72h-1.36V34H446A3.16,3.16,0,0,0,448.27,33.07Z"/><path class="cls-1" d="M460.45,40.73H459V0h7.59a9.65,9.65,0,0,1,7.06,2.93A9.61,9.61,0,0,1,476.58,10v6.1a9.61,9.61,0,0,1-2.53,6.61,9.64,9.64,0,0,1,2.53,6.61V37a7.39,7.39,0,0,0,.61,3.75h-6.71A4,4,0,0,1,470,39c-.06-.69-.1-1.36-.12-2V29.3a3.08,3.08,0,0,0-1-2.3,3.14,3.14,0,0,0-2.3-1h-.89V40.73h-5.25Zm5.25-21.39h.89a3.28,3.28,0,0,0,3.26-3.26V10a3.07,3.07,0,0,0-1-2.29,3.14,3.14,0,0,0-2.3-1h-.89Z"/><path class="cls-1" d="M487.59,34.43l-1,5.09-.24,1.21h-7.83l.35-1.71,7.48-37.8L486.59,0h7.61l.24,1.22L501.91,39l.36,1.71h-7.83l-.24-1.21-1-5.09ZM490.38,17l-1.57,11H492ZM489,27.23l1.36-6.93Z"/><path class="cls-1" d="M541.77,0h1.48V6.73H533.9V17h5.55v6.7H533.9V34h9.35v6.7H527.19V0h14.58Z"/><path class="cls-1" d="M546.53,1.48V0H553l.33,1,5.77,17.84V0h6.72V40.73h-6.42l-.33-1-5.79-17.86V40.73h-6.7V1.48Z"/><path class="cls-1" d="M606.69,0h1.47V6.73h-9.35V17h5.56v6.7h-5.56V34h9.35v6.7h-16V0h14.58Z"/><path class="cls-1" d="M616.69,0h1.46V34h9v6.7H611.44V0h5.25Z"/><path class="cls-1" d="M667.85,2.67a8.64,8.64,0,0,1,2.65,6.38v2.41h-6.73V9.05a2.2,2.2,0,0,0-.68-1.64,2.12,2.12,0,0,0-1.61-.68,2.32,2.32,0,0,0-2.33,2.32V31.71a2.24,2.24,0,0,0,.68,1.64,2.31,2.31,0,0,0,1.65.68,2.32,2.32,0,0,0,2.29-2.32V29.3h6.73v2.41a9,9,0,0,1-18,0V9.05a8.64,8.64,0,0,1,2.65-6.38A8.62,8.62,0,0,1,661.48,0,8.71,8.71,0,0,1,667.85,2.67Z"/><path class="cls-1" d="M688.12,0h1.48V6.73h-9.35V17h5.55v6.7h-5.55V34h9.35v6.7H673.55V0h14.57Z"/><path class="cls-1" d="M698.13,0h1.45V34h9v6.7H692.88V0h5.25Z"/><path class="cls-1" d="M729.21,31.71a9,9,0,0,1-18.05,0V0h6.71V31.71a2.2,2.2,0,0,0,.68,1.64,2.28,2.28,0,0,0,1.64.68,2.32,2.32,0,0,0,2.29-2.32V0h6.73V31.71Z"/><path class="cls-1" d="M737.74,0h1.45V34h9v6.7H732.49V0h5.25Z"/><path class="cls-1" d="M758.51,34.43l-1,5.09-.24,1.21h-7.82l.35-1.71,7.47-37.8L757.5,0h7.62l.23,1.22L772.83,39l.35,1.71h-7.83l-.23-1.21-1-5.09ZM761.3,17l-1.57,11h3.16Zm-1.36,10.19,1.36-6.93Z"/><path class="cls-1" d="M776.83,40.73h-1.45V0H783a9.61,9.61,0,0,1,7,2.93A9.61,9.61,0,0,1,793,10v6.1a9.56,9.56,0,0,1-2.53,6.61A9.6,9.6,0,0,1,793,29.3V37a7.39,7.39,0,0,0,.61,3.75h-6.7a3.84,3.84,0,0,1-.52-1.73c-.06-.69-.1-1.36-.12-2V29.3a3.08,3.08,0,0,0-1-2.3A3.12,3.12,0,0,0,783,26h-.9V40.73h-5.25Zm5.25-21.39h.9a3.12,3.12,0,0,0,2.29-1,3.16,3.16,0,0,0,1-2.3V10a3.07,3.07,0,0,0-1-2.29,3.12,3.12,0,0,0-2.29-1h-.9Z"/><path class="cls-1" d="M811.57,2.67a8.67,8.67,0,0,1,2.65,6.38v9.33a7.71,7.71,0,0,1-2.32,5.36,11.54,11.54,0,0,1-4.32,2.91l.17,3.44h-6.49l-.45-9.23,1.1-.07,1.88-.09h.07a4.58,4.58,0,0,0,2.69-1c.64-.46,1-.92,1-1.35V9.05a2.19,2.19,0,0,0-.7-1.64,2.15,2.15,0,0,0-1.62-.68,2.22,2.22,0,0,0-1.64.68,2.24,2.24,0,0,0-.68,1.64V17.3h-6.63V9.05a8.62,8.62,0,0,1,2.58-6.38,8.95,8.95,0,0,1,12.75,0Zm-3.72,30.48a4.7,4.7,0,0,1-3.31,8,4.6,4.6,0,0,1-3.35-1.37,4.71,4.71,0,1,1,6.66-6.66Z"/><path class="cls-1" d="M14.58,56.8h1.47v6.73H6.7V73.82h5.56v6.7H6.7V90.83h9.35v6.7H0V56.8H14.58Z"/><path class="cls-1" d="M27.42,97.53a8,8,0,0,1-6.07-2.6A9.14,9.14,0,0,1,19,88.51V84.2h6.7v4.31a2.73,2.73,0,0,0,.54,1.81,1.59,1.59,0,0,0,1.22.51.94.94,0,0,0,.87-.4,3.86,3.86,0,0,0,.35-1.92V84a3.59,3.59,0,0,0-.37-2,5.21,5.21,0,0,0-.85-.84l-.87-.66A28.21,28.21,0,0,1,21.07,76,7.11,7.11,0,0,1,19,71.5V65.85a9.11,9.11,0,0,1,2.39-6.43,7.89,7.89,0,0,1,6.07-2.62,7.22,7.22,0,0,1,5.77,2.58,9.66,9.66,0,0,1,2.15,6.47v4.29h-6.7V65.85a4,4,0,0,0-.35-1.93.94.94,0,0,0-.87-.39A1.49,1.49,0,0,0,26.2,64a2.77,2.77,0,0,0-.54,1.81v4.52A2.29,2.29,0,0,0,26.32,72,14.33,14.33,0,0,0,29,74.12a17.74,17.74,0,0,1,4.59,4,7.68,7.68,0,0,1,1.71,4.71v5.67A9.46,9.46,0,0,1,33.19,95,7.24,7.24,0,0,1,27.42,97.53Z"/><path class="cls-1" d="M54,59.47a8.64,8.64,0,0,1,2.65,6.38v2.41H49.88V65.85a2.24,2.24,0,0,0-.68-1.64,2.15,2.15,0,0,0-1.62-.68,2.32,2.32,0,0,0-2.32,2.32V88.51a2.2,2.2,0,0,0,.68,1.64,2.29,2.29,0,0,0,1.64.68,2.32,2.32,0,0,0,2.3-2.32V86.1H56.6v2.41a9,9,0,0,1-9,9,8.62,8.62,0,0,1-6.38-2.64,8.72,8.72,0,0,1-2.65-6.38V65.85A9,9,0,0,1,54,59.47Z"/><path class="cls-1" d="M67.38,91.23l-1,5.09-.24,1.21H58.31l.35-1.71L66.14,58l.24-1.22H74L74.23,58l7.47,37.8.35,1.71H74.23L74,96.32l-1-5.09Zm2.79-17.39-1.57,11h3.17ZM68.81,84l1.36-6.93Z"/><path class="cls-1" d="M84.26,58.28V56.8h6.42l.33,1,5.76,17.84V56.8h6.73V97.53H97.08l-.33-1L91,78.67V97.53h-6.7V58.28Z"/><path class="cls-1" d="M121.69,56.8h1.47v6.73h-9.35V73.82h5.56v6.7h-5.56V90.83h9.35v6.7h-16V56.8h14.58Z"/><path class="cls-1" d="M134.18,91.23l-1,5.09-.23,1.21h-7.83l.35-1.71L132.94,58l.23-1.22h7.62L141,58l7.48,37.8.35,1.71H141l-.23-1.21-1-5.09ZM137,73.84l-1.57,11h3.16ZM135.61,84,137,77.1Z"/><path class="cls-1" d="M182,56.8h1.48v6.73h-9.36V73.82h5.56v6.7h-5.56V90.83h9.36v6.7H167.46V56.8H182Z"/><path class="cls-1" d="M194.88,97.53a8,8,0,0,1-6.07-2.6,9.14,9.14,0,0,1-2.39-6.42V84.2h6.7v4.31a2.73,2.73,0,0,0,.54,1.81,1.59,1.59,0,0,0,1.22.51.94.94,0,0,0,.87-.4,3.86,3.86,0,0,0,.35-1.92V84a3.59,3.59,0,0,0-.37-2,5.21,5.21,0,0,0-.85-.84c-.33-.25-.61-.48-.86-.66A28,28,0,0,1,188.53,76a7.11,7.11,0,0,1-2.11-4.52V65.85a9.11,9.11,0,0,1,2.39-6.43,7.9,7.9,0,0,1,6.07-2.62,7.22,7.22,0,0,1,5.77,2.58,9.61,9.61,0,0,1,2.15,6.47v4.29h-6.7V65.85a4,4,0,0,0-.35-1.93.94.94,0,0,0-.87-.39,1.51,1.51,0,0,0-1.22.51,2.77,2.77,0,0,0-.54,1.81v4.52a2.29,2.29,0,0,0,.66,1.66,14.33,14.33,0,0,0,2.72,2.09,17.57,17.57,0,0,1,4.59,4,7.68,7.68,0,0,1,1.71,4.71v5.67A9.41,9.41,0,0,1,200.65,95,7.24,7.24,0,0,1,194.88,97.53Z"/><path class="cls-1" d="M206.16,63.53h-1.48V56.8h18v6.73h-5.65v34h-6.73v-34Z"/><path class="cls-1" d="M239.46,56.8h1.48v6.73h-9.35V73.82h5.55v6.7h-5.55V90.83h9.35v6.7H224.88V56.8h14.58Z"/><path class="cls-1" d="M275.65,59.47a8.72,8.72,0,0,1,2.65,6.38V88.51a8.79,8.79,0,0,1-2.65,6.38,8.68,8.68,0,0,1-3,2,2.4,2.4,0,0,0,.49.43,2.53,2.53,0,0,0,2.45.29l1.42-.48,1.29,4.66-2.13.76a5.31,5.31,0,0,1-3.94,0q-1.8-.78-2-1.56c-.12-.53-.71-1-1.77-1.4a3.94,3.94,0,0,0-3.14.05l-1.52.68-1.32-4.5.21-.11.71-.31c-.25-.22-.43-.38-.54-.49a8.68,8.68,0,0,1-2.65-6.38V65.85a9,9,0,0,1,15.4-6.38Zm-8,4.74a2.24,2.24,0,0,0-.68,1.64V88.51a2.24,2.24,0,0,0,.68,1.64,2.29,2.29,0,0,0,3.26,0,2.24,2.24,0,0,0,.68-1.64V65.85a2.24,2.24,0,0,0-.68-1.64,2.18,2.18,0,0,0-1.62-.68A2.22,2.22,0,0,0,267.63,64.21Z"/><path class="cls-1" d="M282.94,97.53h-1.46V56.8h7.6a10,10,0,0,1,10,10v6.1a9.56,9.56,0,0,1-2.53,6.61,9.6,9.6,0,0,1,2.53,6.61v7.68a7.41,7.41,0,0,0,.61,3.75H293a4.1,4.1,0,0,1-.52-1.73c-.06-.69-.1-1.36-.11-2V86.1a3.08,3.08,0,0,0-1-2.3,3.16,3.16,0,0,0-2.3-1h-.89V97.53h-5.25Zm5.25-21.39h.89a3.3,3.3,0,0,0,3.26-3.26v-6.1a3.07,3.07,0,0,0-1-2.29,3.16,3.16,0,0,0-2.3-1h-.89Z"/><path class="cls-1" d="M334.15,59.47a8.67,8.67,0,0,1,2.65,6.38v2.41h-6.73V65.85a2.24,2.24,0,0,0-.68-1.64,2.15,2.15,0,0,0-1.62-.68,2.22,2.22,0,0,0-1.64.68,2.24,2.24,0,0,0-.68,1.64V88.51a2.24,2.24,0,0,0,.68,1.64,2.31,2.31,0,0,0,1.64.68,2.21,2.21,0,0,0,1.62-.68,2.24,2.24,0,0,0,.68-1.64V86.1h6.73v2.41a9,9,0,0,1-9,9,8.6,8.6,0,0,1-6.37-2.64,8.68,8.68,0,0,1-2.65-6.38V65.85a9,9,0,0,1,15.4-6.38Z"/><path class="cls-1" d="M354.87,59.47a8.72,8.72,0,0,1,2.65,6.38V88.51a9,9,0,0,1-9,9,8.6,8.6,0,0,1-6.37-2.64,8.68,8.68,0,0,1-2.65-6.38V65.85a9,9,0,0,1,15.4-6.38Zm-8,4.74a2.24,2.24,0,0,0-.68,1.64V88.51a2.24,2.24,0,0,0,.68,1.64,2.31,2.31,0,0,0,1.64.68,2.33,2.33,0,0,0,1.62-.68,2.24,2.24,0,0,0,.68-1.64V65.85a2.24,2.24,0,0,0-.68-1.64,2.18,2.18,0,0,0-1.62-.68A2.2,2.2,0,0,0,346.85,64.21Z"/><path class="cls-1" d="M360.7,58.28V56.8h6.42l.33,1,5.77,17.84V56.8H380V97.53h-6.43l-.32-1-5.79-17.86V97.53H360.7V58.28Z"/><path class="cls-1" d="M400.1,63.53h-1.48V56.8h18.05v6.73H411v34H404.3v-34Z"/><path class="cls-1" d="M436.88,88.51a9,9,0,0,1-9,9,8.6,8.6,0,0,1-6.37-2.64,8.68,8.68,0,0,1-2.65-6.38V56.8h6.7V88.51a2.24,2.24,0,0,0,.68,1.64,2.31,2.31,0,0,0,1.64.68,2.21,2.21,0,0,0,1.62-.68,2.24,2.24,0,0,0,.68-1.64V56.8h6.73V88.51Z"/><path class="cls-1" d="M472,59.47a8.64,8.64,0,0,1,2.65,6.38v2.41h-6.73V65.85a2.2,2.2,0,0,0-.68-1.64,2.11,2.11,0,0,0-1.61-.68,2.32,2.32,0,0,0-2.32,2.32V88.51a2.2,2.2,0,0,0,.68,1.64,2.28,2.28,0,0,0,1.64.68,2.32,2.32,0,0,0,2.29-2.32V86.1h6.73v2.41a9,9,0,0,1-18.05,0V65.85A9,9,0,0,1,472,59.47Z"/><path class="cls-1" d="M485.39,91.23l-1,5.09-.23,1.21h-7.83l.35-1.71L484.15,58l.23-1.22H492l.23,1.22,7.48,37.8.35,1.71h-7.83L492,96.32l-1-5.09Zm9.05-40.62L487,54.83l-1-1.71,6.47-5.93Zm-6.26,23.23-1.57,11h3.16ZM486.82,84l1.36-6.93Z"/><path class="cls-1" d="M502.27,56.8h6.49L517.29,83l8.51-26.2h6.49V97.53h-6.7V79.16l-6,18.37H515l-6-18.37V97.53h-6.7Z"/><path class="cls-1" d="M543.16,91.23l-1,5.09-.24,1.21h-7.83l.36-1.71L541.92,58l.24-1.22h7.61L550,58l7.47,37.8.36,1.71H550l-.24-1.21-1-5.09ZM546,73.84l-1.57,11h3.17ZM544.59,84,546,77.1Z"/><path class="cls-1" d="M561.49,97.53H560V56.8h7.59a10,10,0,0,1,10,10v6.1a9.61,9.61,0,0,1-2.53,6.61,9.64,9.64,0,0,1,2.53,6.61v7.68a7.3,7.3,0,0,0,.61,3.75h-6.71A4,4,0,0,1,571,95.8c-.07-.69-.1-1.36-.12-2V86.1a3.08,3.08,0,0,0-1-2.3,3.14,3.14,0,0,0-2.3-1h-.89V97.53h-5.25Zm5.25-21.39h.89a3.3,3.3,0,0,0,3.26-3.26v-6.1a3.07,3.07,0,0,0-1-2.29,3.14,3.14,0,0,0-2.3-1h-.89Z"/><path class="cls-1" d="M588.63,91.23l-1,5.09-.23,1.21h-7.83l.35-1.71L587.39,58l.23-1.22h7.62l.24,1.22L603,95.82l.35,1.71h-7.82l-.24-1.21-1-5.09Zm2.79-17.39-1.57,11H593ZM590.06,84l1.36-6.93Z"/><path class="cls-1" d="M613.18,89.47a4.68,4.68,0,0,1,0,6.68,4.72,4.72,0,1,1,0-6.68Z"/></g></g></svg>